<svg xmlns="http://www.w3.org/2000/svg" width="250" height="205.06" viewBox="0 0 250 205.06"><path d="M124.737 7.012c2.168 1.325 2.979 2.967 3.758 5.305 0.14 1.747 -0.189 3.018 -0.776 4.63 -0.259 0.811 -0.304 1.514 -0.222 2.36l0.874 -0.77c2.064 -1.819 3.97 -2.076 6.644 -2.008 2.11 0.212 3.44 0.981 4.903 2.486 1.099 1.374 1.505 2.926 1.893 4.619l0.728 -0.666c1.679 -1.105 3.682 -1.018 5.597 -0.666 1.091 0.622 1.868 1.366 2.663 2.33l0.561 0.611c0.907 1.491 0.628 3.369 0.438 5.048 -0.583 1.186 -0.583 1.186 -1.332 1.997l-0.583 0.749c-1.075 0.836 -2.081 0.982 -3.412 1.248v0.666h5.659V22.636l-0.999 -0.333c-1.619 -1.879 -1.912 -3.881 -1.8 -6.296 0.243 -1.849 0.715 -3.053 2.152 -4.272 2.075 -1.459 3.928 -2.346 6.492 -1.969 2.04 0.553 3.894 1.692 5.181 3.382 1.011 1.881 0.997 4.101 0.624 6.158a40.613 40.613 0 0 1 -0.828 1.248c-1.437 2.416 -1.098 5.371 -1.107 8.094a680.093 680.093 0 0 1 -0.025 1.739c-0.021 1.411 -0.032 2.821 -0.037 4.232l2.33 -0.333 -0.832 -0.728c-1.134 -1.372 -1.104 -2.809 -1.039 -4.529 0.331 -1.711 1.188 -2.676 2.537 -3.731 1.307 -0.784 2.488 -0.798 3.995 -0.666 1.762 0.612 3.156 1.649 3.995 3.329 0.261 1.484 0.324 2.853 0 4.328l-1.664 1.997h8.322l-1.664 -0.936c-2.935 -1.867 -5.194 -5.016 -6.186 -8.376 -0.677 -3.286 -0.481 -7.074 1.193 -9.995l0.49 -0.931c1.844 -3.226 4.902 -5.523 8.49 -6.588C185.04 6.789 188.82 6.981 191.744 8.655l0.919 0.479c3.197 1.814 5.406 4.592 6.528 8.108 0.863 4.4 0.362 8.468 -2.03 12.31C195.477 31.861 193.972 32.658 191.411 34.288l19.973 0.333 0.333 -1.664c1.673 -1.802 3.73 -2.603 6.187 -2.696 2.458 0.155 4.305 0.889 6.067 2.613 1.166 1.732 1.962 3.506 1.893 5.645 -0.364 1.67 -1.272 3.866 -2.497 5.091l15.979 0.333v12.317l-5.659 0.333 0.333 0.999c0.13 1.949 -0.012 3.249 -0.999 4.993 -0.631 0.621 -1.29 1.126 -1.997 1.664l-0.333 0.666 0.874 0.083c2.384 0.53 3.457 1.907 4.719 3.871 1.154 2.042 1.039 4.748 0.732 7.031 -0.829 2.4 -2.477 4.081 -4.66 5.326 -1.267 0.602 -2.37 0.782 -3.766 0.874l-1.078 0.076L226.698 82.224l0.413 0.451c1.565 1.756 2.428 3.046 2.354 5.502 -0.263 1.78 -1.117 3.187 -2.476 4.346 -1.87 1.341 -3.693 1.344 -5.95 1.019 -1.68 -0.92 -2.811 -2.293 -3.662 -3.995 -0.27 -1.804 -0.25 -3.455 0.52 -5.118L218.708 83.555l0.502 -0.55c1.48 -1.463 2.771 -1.771 4.824 -1.78l-0.524 -0.343c-1.703 -1.184 -2.952 -2.397 -3.804 -4.317v-0.999h-3.995v21.305c8.535 0.755 8.535 0.755 10.652 -1.664 0.666 -0.409 0.666 -0.409 1.332 -0.728l0.666 -0.327c2.081 -0.866 3.937 -0.824 6.034 -0.007q0.815 0.357 1.623 0.728l0.936 0.395c1.454 1.204 2.366 3.087 2.725 4.931 0.241 2.794 -0.545 5.144 -2.33 7.324 -0.7 0.792 -1.348 1.265 -2.33 1.664h-0.999v2.996h5.326v11.984l-17.643 0.333 4.66 1.332c2.845 1.451 5.038 3.118 7.324 5.326l0.705 0.596c2.831 2.5 4.864 6.635 5.287 10.389l0.108 0.732c0.822 6.456 0.33 13.058 -3.53 18.504C232.216 166.589 227.292 170.251 220.706 171.438l-0.933 0.17c-2 0.28 -4.027 0.242 -6.043 0.268l-1.4 0.021c-1.515 0.023 -3.029 0.042 -4.544 0.061l-0.779 0.01q-4.789 0.06 -9.577 0.11 -2.659 0.028 -5.318 0.067 -3.392 0.047 -6.784 0.072 -1.257 0.011 -2.515 0.031c-1.16 0.018 -2.32 0.025 -3.481 0.029l-1.03 0.023c-1.574 -0.005 -2.293 -0.011 -3.578 -0.989 -0.649 -0.907 -0.846 -1.375 -0.894 -2.474l-0.048 -0.797L173.768 167.443l-0.753 0.415c-1.655 0.826 -3.424 1.358 -5.176 1.936 -0.347 0.117 -0.694 0.234 -1.052 0.354 -3.672 1.219 -6.816 1.752 -10.704 1.747l-1.302 -0.002c-3.098 -0.04 -5.732 -0.344 -8.643 -1.455l-0.894 -0.28c-5.258 -1.783 -10.435 -6.913 -12.89 -11.855 -2.464 -5.496 -3.015 -12.739 -1.153 -18.533 2.516 -6.583 7.659 -11.495 13.95 -14.501C146.138 124.834 146.138 124.834 147.137 124.501h-15.313l0.999 0.999c0.294 1.367 0.284 2.627 0 3.995 -0.742 1.01 -1.575 1.71 -2.663 2.33h-0.666c-0.816 2.215 -0.752 4.338 -0.728 6.679l0.008 1.347c0.009 1.331 0.025 2.662 0.043 3.992q0.02 1.601 0.037 3.202 0.035 3.052 0.082 6.103 0.018 1.23 0.034 2.459c0.015 1.163 0.034 2.326 0.055 3.489l0.012 1.069 0.02 0.987 0.013 0.861c0.103 0.852 0.298 1.38 0.759 2.103a49.933 49.933 0 0 0 1.997 1.332c0.768 0.594 0.975 0.87 1.155 1.839l0.01 0.949 0.031 0.944c-0.295 1.385 -0.679 1.8 -1.862 2.593 -1.378 0.215 -2.729 0.172 -4.12 0.125l-1.176 -0.027q-1.156 -0.029 -2.312 -0.069a52.264 52.264 0 0 0 -2.634 -0.005c-2.918 -0.009 -2.918 -0.009 -4.192 -0.918C116.015 170.107 115.437 169.308 114.847 168.442a145.806 145.806 0 0 0 -1.477 -1.81l-0.757 -0.934c-0.739 -0.89 -1.501 -1.749 -2.281 -2.603 -1.205 -1.324 -2.333 -2.689 -3.441 -4.095 -1.032 -1.295 -2.1 -2.558 -3.166 -3.823 -1.099 -1.32 -2.143 -2.685 -3.192 -4.045q-0.012 2.372 -0.018 4.744 -0.003 0.807 -0.007 1.613c-0.004 0.774 -0.006 1.549 -0.008 2.323l-0.005 0.724c0 1.228 0.01 2.397 0.371 3.579a40.945 40.945 0 0 0 1.664 0.666c0.864 0.552 1.47 1.114 1.997 1.997 0.263 1.265 0.327 2.408 0 3.662 -0.601 0.877 -0.601 0.877 -1.664 1.664 -1.31 0.239 -2.602 0.201 -3.93 0.174l-1.186 -0.004c-1.277 -0.007 -2.553 -0.026 -3.83 -0.045q-1.314 -0.013 -2.627 -0.024 -2.629 -0.025 -5.258 -0.066a503.662 503.662 0 0 0 -5.628 -0.053c-1.205 -0.006 -2.41 -0.019 -3.615 -0.036a182.091 182.091 0 0 0 -1.642 -0.012c-0.75 -0.003 -1.499 -0.017 -2.249 -0.033l-1.249 -0.016c-1.372 -0.28 -1.876 -0.804 -2.739 -1.884 -0.186 -0.917 -0.186 -0.917 -0.145 -1.852l0.022 -0.938c0.124 -0.876 0.396 -1.424 0.789 -2.204 -0.276 -0.858 -0.276 -0.858 -0.666 -1.664v-0.999q-2.604 0.035 -5.207 0.087 -0.885 0.017 -1.772 0.028c-0.849 0.011 -1.697 0.029 -2.546 0.047l-0.801 0.007c-1.407 0.025 -1.407 0.025 -2.646 0.622 -0.476 0.749 -0.632 1.319 -0.676 2.205l0.486 0.439c0.711 0.776 0.668 1.31 0.679 2.349l0.031 0.944c-0.29 1.361 -0.741 1.761 -1.862 2.593 -1.296 0.251 -2.574 0.233 -3.89 0.221l-1.145 0.005a236.019 236.019 0 0 1 -2.394 -0.009c-1.221 -0.009 -2.441 0 -3.662 0.011q-1.164 -0.002 -2.328 -0.007l-1.105 0.01c-2.529 -0.039 -2.529 -0.039 -3.846 -1.026 -0.627 -0.903 -0.826 -1.386 -0.874 -2.471l-0.048 -0.797L35.286 167.111l-0.574 0.536c-4.025 3.682 -7.547 4.358 -12.886 4.248 -4.625 -0.22 -8.782 -2.339 -12.09 -5.554 -0.93 -1.229 -1.092 -2.427 -1.01 -3.945 0.509 -1.84 1.934 -2.967 3.257 -4.273a37.949 37.949 0 0 0 1.082 -1.435l0.481 -0.641a92.543 92.543 0 0 0 1.142 -1.585c1.325 -0.921 2.384 -0.935 3.974 -0.876 1.348 0.291 1.93 0.886 2.744 1.966 0.756 0.77 1.544 0.927 2.562 1.241q0.112 -4.514 0.199 -9.029c0.027 -1.397 0.057 -2.795 0.092 -4.192q0.05 -2.023 0.084 -4.047 0.015 -0.772 0.037 -1.543c0.02 -0.721 0.032 -1.442 0.042 -2.163l0.027 -1.243c-0.177 -1.304 -0.564 -1.823 -1.479 -2.749a83.222 83.222 0 0 0 -1.997 -1.332c-0.791 -0.52 -0.791 -0.52 -1.332 -1.332 -0.166 -1.238 -0.209 -2.429 0 -3.662l0.999 -0.999 -11.318 -0.333v-11.984h3.995c0.004 -2.026 0.004 -2.026 -0.333 -3.995 -0.617 -0.575 -1.218 -0.859 -1.971 -1.23 -1.382 -0.868 -1.906 -2.244 -2.356 -3.763 -0.38 -2.543 -0.143 -4.712 1.119 -6.967 0.746 -0.942 1.601 -1.375 2.652 -1.923 0.614 -0.394 0.614 -0.394 0.801 -1.121 0.113 -0.823 0.113 -0.823 0.089 -1.973l-0.915 -0.208c-1.349 -0.571 -1.716 -1.19 -2.413 -2.455 -0.615 -1.844 -0.746 -4.027 0.027 -5.836 0.489 -0.778 0.986 -1.503 1.637 -2.153l-1.664 -0.333v-10.985h47.936l0.333 -5.992c-1.291 0.011 -2.58 0.033 -3.87 0.063l-1.104 0.006c-2.305 0.063 -3.406 0.262 -5.013 1.929 -1.962 1.093 -3.996 1.346 -6.164 0.78 -2.334 -0.811 -3.774 -1.993 -4.869 -4.213 -0.34 -1.064 -0.375 -1.963 -0.369 -3.079l-0.005 -1.125c0.087 -0.993 0.289 -1.493 0.754 -2.35q-3.251 0.022 -6.502 0.069 -1.104 0.014 -2.208 0.021c-1.063 0.007 -2.125 0.023 -3.188 0.04l-0.985 0.001c-2.002 0.042 -3.543 0.392 -5.365 1.233 -1.764 0.729 -3.315 0.395 -5.075 -0.199 -2.026 -0.877 -3.388 -2.309 -4.361 -4.281 -0.666 -2.105 -0.662 -4.68 0.263 -6.704 1.135 -1.899 2.789 -2.925 4.785 -3.828 -0.317 -0.817 -0.317 -0.817 -1.56 -1.165 -1.835 -0.899 -2.723 -2.276 -3.433 -4.161 -0.355 -1.987 -0.303 -3.725 0.728 -5.493C11.762 29.366 13.007 28.308 14.647 27.63c2.427 -0.305 4.449 -0.261 6.463 1.203C21.647 29.303 22.163 29.758 22.636 30.293v0.666c1.276 0.039 2.552 0.063 3.828 0.083l1.087 0.034c2.024 0.025 3.424 -0.116 5.179 -1.142 1.313 -0.722 2.79 -0.537 4.22 -0.307 2.26 0.774 3.902 1.813 4.993 3.995l42.277 0.333V27.963l-1.664 -0.333c-1.197 -1.094 -1.887 -2.401 -2.182 -3.989 -0.084 -1.944 0.116 -3.536 1.292 -5.122 1.227 -1.193 2.612 -1.812 4.32 -1.924 1.794 0.121 3.44 0.645 4.893 1.715 1.399 1.679 1.557 3.179 1.484 5.342 -0.224 1.445 -0.754 2.625 -1.817 3.646l-1.332 0.333v6.325h10.985V23.302l-1.664 -0.666c-0.442 -0.528 -0.442 -0.528 -0.749 -1.124l-0.317 -0.59c-0.942 -2.188 -0.954 -4.881 -0.371 -7.166 0.823 -2.033 1.977 -3.216 3.927 -4.177 2.506 -1.043 4.499 -1.205 7.055 -0.264 2.137 0.974 3.58 2.013 4.469 4.256 0.832 2.978 0.565 5.78 -0.935 8.468C111.185 22.636 111.185 22.636 110.519 22.969l-0.333 10.985h6.325a956.059 956.059 0 0 0 -0.069 -6.859q-0.014 -1.166 -0.021 -2.333a363.848 363.848 0 0 0 -0.04 -3.357l-0.001 -1.05c-0.041 -2.037 -0.257 -3.12 -1.533 -4.711 -0.363 -2.018 -0.336 -4.052 0.728 -5.846 2.23 -2.993 5.576 -4.193 9.162 -2.788M127.497 29.294v33.289c2.306 -1.618 2.306 -1.618 3.089 -3.821q0.012 -0.762 0.014 -1.525l0.01 -0.84c0.01 -0.919 0.014 -1.839 0.018 -2.758l0.012 -1.913q0.01 -2.007 0.013 -4.015c0.003 -1.716 0.019 -3.431 0.038 -5.147 0.013 -1.318 0.016 -2.635 0.017 -3.953q0.003 -0.949 0.016 -1.897c0.011 -0.885 0.01 -1.769 0.006 -2.654l0.019 -0.794c0.009 -0.824 0.009 -0.824 -0.256 -1.975 -0.917 -0.829 -0.917 -0.829 -1.997 -1.332zm12.317 0c-0.778 1.167 -0.747 1.627 -0.741 3.007v1.252l0.011 1.353 0.003 1.384c0.003 1.213 0.009 2.427 0.017 3.64 0.007 1.238 0.01 2.477 0.013 3.715 0.007 2.429 0.018 4.859 0.032 7.288l0.446 -0.387c0.929 -0.801 1.851 -1.585 2.832 -2.321 1.391 -1.149 2.402 -2.148 2.646 -3.977 0.102 -1.563 0.026 -3.113 -0.058 -4.674q-0.025 -0.819 -0.046 -1.638A161.784 161.784 0 0 0 144.807 33.955l-0.632 -0.27 -0.825 -0.357 -0.82 -0.353c-1.321 -0.647 -1.622 -1.423 -2.113 -2.766L140.146 29.294zM19.973 40.28a28.628 28.628 0 0 1 -1.332 0.666c0.797 0.902 1.622 1.358 2.705 1.873 1.595 0.763 1.595 0.763 1.956 1.124 0.666 0.029 1.332 0.036 1.999 0.033l1.226 -0.003 1.29 -0.008 1.295 -0.005Q30.7 43.951 32.29 43.941l-0.789 -0.628C29.864 41.998 28.976 40.762 27.963 38.948a179.095 179.095 0 0 0 -2.871 -0.083l-0.816 -0.034c-1.844 -0.03 -2.82 0.255 -4.303 1.449m88.216 14.98c1.702 1.986 1.702 1.986 3.491 3.869l0.795 0.797 0.811 0.807 0.831 0.834 0.789 0.788 0.717 0.716c0.471 0.551 0.471 0.551 0.889 0.513v-8.322zm-11.318 7.989c1.178 0.971 2.384 1.831 3.662 2.663l0.666 -0.333c-1.433 -1.752 -1.433 -1.752 -3.474 -2.476zm65.912 18.642 -0.333 0.666 0.949 -0.047c3.362 -0.098 3.362 -0.098 4.918 0.546 1.003 1.056 1.57 2.157 2.122 3.495h2.663l0.122 -0.597 0.169 -0.797 0.164 -0.784C173.768 83.555 173.768 83.555 174.434 81.891zm32.956 0.333 0.999 2.663 0.915 -0.666c1.705 -0.972 3.503 -0.94 5.409 -0.666 0.835 0.36 1.311 0.721 1.997 1.332v-2.663zm-37.148 3.821a372.836 372.836 0 0 0 -1.136 1.141l-0.603 0.605q-0.957 0.961 -1.913 1.923l-1.294 1.299A3045.939 3045.939 0 0 0 150.466 94.208l0.333 0.666c0.941 0.288 1.551 0.358 2.518 0.146 0.991 -0.178 1.267 0.082 2.143 0.52 0.852 -0.11 0.852 -0.11 1.664 -0.333h0.999l0.936 -0.023 1.061 -0.018 1.061 -0.023C162.117 95.206 162.117 95.206 163.116 95.872c0.838 -0.112 0.838 -0.112 1.664 -0.333h0.999l0.913 -0.012c0.344 -0.003 0.688 -0.006 1.043 -0.009l1.038 -0.012c1.239 0.04 2.345 0.282 3.54 0.595 0.878 0.204 0.878 0.204 1.789 -0.562 0.728 0.125 0.728 0.125 1.332 0.333 0 -1.471 -0.283 -1.993 -0.999 -3.246l-0.562 -0.993L173.435 90.879c-2.272 -0.274 -2.272 -0.274 -4.358 0.445L168.463 91.877c-1.391 1.2 -2.572 1.29 -4.377 1.194 -1.564 -0.314 -2.586 -1.005 -3.633 -2.192 -0.963 -1.726 -0.727 -3.731 -0.666 -5.659 -0.492 -0.038 -0.492 -0.038 -1.196 0.825M196.405 91.212l-0.413 0.693 -0.544 0.909 -0.538 0.901A51.931 51.931 0 0 1 193.742 95.539c1.693 0.413 1.693 0.413 3.329 0l0.604 0.166c0.734 0.222 0.734 0.222 1.498 0 1.363 -0.254 2.637 -0.018 3.953 0.395 0.756 0.192 0.756 0.192 1.935 -0.562v-3.662l-0.728 0.666c-1.624 1.088 -3.734 0.983 -5.597 0.666 -0.879 -0.604 -1.578 -1.245 -2.33 -1.997m-154.461 32.956 0.666 0.999c0.316 1.395 0.344 2.603 0 3.995 -0.852 1.013 -1.745 1.776 -2.796 2.579 -0.958 0.83 -1.173 1.219 -1.532 2.415a29.96 29.96 0 0 0 -0.06 2.479l0.005 0.739q0.006 0.791 0.015 1.583c0.01 0.839 0.016 1.678 0.02 2.517 0.013 2.384 0.035 4.769 0.059 7.154q0.021 2.191 0.03 4.383 0.006 0.83 0.017 1.66c0.043 3.204 -0.119 6.023 -1.084 9.113a85.885 85.885 0 0 0 -0.333 1.332c1.664 -0.955 2.349 -1.715 3.183 -3.495l0.327 -0.687c0.389 -0.822 0.769 -1.649 1.15 -2.475q0.49 -1.049 0.98 -2.096c0.834 -1.786 1.663 -3.575 2.489 -5.366 0.842 -1.824 1.689 -3.645 2.537 -5.467A1800.932 1800.932 0 0 0 52.18 135.652l0.422 -0.916 0.384 -0.842c0.11 -0.241 0.22 -0.481 0.334 -0.729 0.27 -0.663 0.452 -1.309 0.608 -2.007l-0.999 -0.603c-0.758 -0.627 -0.976 -0.952 -1.178 -1.928 -0.064 -2.162 0.062 -2.648 1.511 -4.459zm24.301 0 1.997 2.996a49.601 49.601 0 0 1 1.144 2.185l0.321 0.65c1.469 3.007 2.874 6.047 4.29 9.079 1.267 2.713 2.542 5.421 3.836 8.122l0.442 0.921q0.862 1.798 1.726 3.594 0.654 1.362 1.307 2.725l0.414 0.866a131.158 131.158 0 0 1 2.78 6.244c0.435 1.169 0.435 1.169 1.383 1.9 0.443 -0.885 0.387 -1.573 0.401 -2.565l0.02 -1.211 0.017 -1.323 0.021 -1.371q0.022 -1.446 0.041 -2.892 0.024 -1.814 0.053 -3.628 0.053 -3.497 0.089 -6.993c0.016 -1.498 0.046 -2.996 0.08 -4.494q0.019 -1.134 0.037 -2.268l0.032 -1.039c0.053 -1.807 0.053 -1.807 -0.749 -3.369 -0.728 -0.486 -1.447 -0.926 -2.226 -1.325 -1.837 -0.945 -1.837 -0.945 -2.476 -1.81 -0.132 -0.852 -0.132 -0.852 -0.125 -1.81l-0.008 -0.956C81.225 125.499 81.225 125.499 82.224 124.168zm31.957 0c1.432 1.671 1.432 1.671 2.865 3.341 3.151 3.694 6.118 7.511 9.022 11.401 1.979 2.67 1.979 2.67 4.093 5.231h0.333q0.109 -2.229 0.197 -4.46 0.032 -0.758 0.069 -1.516a191.411 191.411 0 0 0 0.092 -2.184l0.058 -1.326c-0.089 -1.256 -0.326 -1.84 -1.082 -2.831 -0.719 -0.591 -0.719 -0.591 -1.519 -1.061 -0.81 -0.504 -1.467 -0.925 -2.143 -1.602 -0.1 -0.819 -0.1 -0.819 -0.104 -1.789l-0.017 -0.965C110.186 125.499 110.186 125.499 111.185 124.168zm63.582 0c1.03 0.515 2.008 0.925 3.079 1.332 1.801 0.743 3.429 1.655 5.077 2.684l0.688 0.427c2.981 1.9 2.981 1.9 3.375 3.508 0.071 2.19 -0.083 3.481 -1.588 5.136A112.85 112.85 0 0 1 170.772 138.815a73.236 73.236 0 0 0 -1.332 1.498l-0.562 0.634c-0.465 0.524 -0.465 0.524 -0.77 1.196l0.773 -0.021c1.157 -0.028 2.314 -0.045 3.471 -0.062l1.217 -0.034 1.17 -0.013 1.078 -0.021c1.175 0.188 1.553 0.558 2.277 1.483 0.356 1.259 0.277 2.39 0 3.662 -0.61 1.064 -1.281 2.001 -2.048 2.957 -1.634 2.756 -0.985 6.916 -0.969 10.047q0.003 0.822 0.004 1.643 0.006 1.997 0.016 3.995 0.564 -0.475 1.126 -0.953l0.633 -0.536c0.975 -0.868 1.491 -1.604 1.902 -2.839 0.034 -0.899 0.049 -1.79 0.048 -2.69l0.003 -0.83q0.004 -1.36 0.004 -2.72l0.003 -1.889q0.003 -1.981 0.002 -3.961c0 -1.693 0.005 -3.386 0.01 -5.079q0.005 -1.951 0.004 -3.902 0 -0.936 0.004 -1.873c0.003 -0.873 0.002 -1.745 0 -2.618 0.002 -0.258 0.004 -0.516 0.006 -0.782 -0.007 -1.25 -0.02 -2.239 -0.752 -3.282 -0.696 -0.563 -0.696 -0.563 -1.498 -1.04 -0.815 -0.51 -1.482 -0.941 -2.164 -1.623 -0.1 -0.819 -0.1 -0.819 -0.104 -1.789l-0.017 -0.965C174.434 125.499 174.434 125.499 175.433 124.168zm32.623 6.658c-1.345 1.345 -1.854 2.171 -1.886 4.075l0.012 0.796 -0.007 0.854c-0.006 0.927 0.001 1.855 0.008 2.782q0 0.971 -0.002 1.942 -0.001 2.034 0.013 4.068c0.011 1.734 0.009 3.467 0.003 5.2 -0.003 1.337 0 2.674 0.005 4.011q0.003 0.959 -0.001 1.917c-0.002 0.895 0.005 1.791 0.014 2.686l-0.007 0.792c0.033 1.921 0.564 3.164 1.516 4.831 1.395 -0.628 1.942 -1.29 2.663 -2.663 0.134 -0.982 0.198 -1.842 0.198 -2.823l0.015 -0.838c0.015 -0.909 0.02 -1.818 0.025 -2.727q0.011 -0.951 0.024 -1.902 0.023 -1.991 0.036 -3.982c0.011 -1.699 0.032 -3.398 0.056 -5.098 0.018 -1.309 0.031 -2.618 0.042 -3.927q0.009 -0.939 0.022 -1.879c0.012 -0.876 0.017 -1.753 0.019 -2.629l0.014 -0.78c-0.003 -1.595 -0.25 -2.696 -1.117 -4.041 -0.851 -0.475 -0.851 -0.475 -1.664 -0.666m-46.605 10.32c-1.664 2.175 -2.883 4.499 -2.547 7.283 0.606 2.841 1.679 5.685 4.17 7.364 1.299 0.71 2.589 1.047 4.036 1.332l-0.651 -0.623c-0.949 -1.454 -0.89 -2.69 -0.909 -4.391q-0.021 -0.89 -0.046 -1.78l-0.011 -0.792c-0.047 -0.729 -0.191 -1.363 -0.38 -2.067a28.961 28.961 0 0 1 -0.104 -1.831l-0.038 -0.947c0.19 -1.183 0.523 -1.493 1.473 -2.216a16.644 16.644 0 0 1 2.606 -0.203l0.756 -0.017c0.794 -0.016 1.587 -0.023 2.381 -0.03q0.809 -0.014 1.618 -0.03c1.319 -0.025 2.638 -0.041 3.958 -0.053 -2.573 -2.601 -5.134 -4.007 -8.801 -4.473C152.507 138.015 149.8 139.104 147.803 141.145m63.582 -2.996c-0.297 1.523 -0.382 2.995 -0.377 4.542l-0.001 0.734q0 0.769 0.002 1.538 0.002 1.146 -0.002 2.292c-0.001 3.411 0.142 6.798 0.378 10.201 3.958 0.125 7.272 -0.458 10.652 -2.663 1.958 -1.862 3.012 -4.268 3.142 -6.949 -0.063 -1.865 -0.638 -3.384 -1.477 -5.035l-0.33 -0.668c-1.144 -1.929 -2.956 -2.586 -4.996 -3.326l-0.677 -0.25c-2.049 -0.626 -4.193 -0.474 -6.313 -0.416m-149.467 9.987 -0.666 1.997h1.664l-0.666 -1.997zm95.206 8.655c-0.512 0.075 -1.025 0.136 -1.54 0.187l-0.825 0.084L154.128 157.124v0.333c2.132 0.079 3.943 -0.059 5.992 -0.666v-0.333c-1.548 -0.09 -1.548 -0.09 -2.996 0.333"/><path d="M104.444 173.639c0.696 0.429 1.206 0.853 1.748 1.46 0.828 -0.382 1.521 -0.8 2.268 -1.332 2.759 -1.731 6.225 -1.702 9.383 -1.332 2.07 0.608 3.6 1.704 4.993 3.329l0.25 -0.915c0.451 -1.174 0.761 -1.649 1.748 -2.413 1.091 -0.165 1.091 -0.165 2.31 -0.145l1.216 0.001c1.433 0.182 2.204 0.698 3.335 1.544 0.687 0.887 0.609 1.624 0.634 2.735l0.036 1.265 0.023 1.322q0.017 0.667 0.035 1.334 0.041 1.632 0.07 3.265h3.662l-0.073 -1.098a305.26 305.26 0 0 1 -0.22 -3.824 155.459 155.459 0 0 0 -0.121 -1.944l-0.044 -1.04 -0.049 -0.91c0.267 -1.285 0.788 -1.735 1.839 -2.502 1 -0.244 1.95 -0.248 2.975 -0.229l0.792 -0.028c1.509 0.006 2.324 0.185 3.411 1.27L145.473 174.434l0.77 -0.811c1.334 -1.272 2.299 -1.228 4.078 -1.23l0.661 -0.001q1.074 0 2.147 0.004l0.737 0.001c3.863 0.003 7.716 0.097 11.575 0.285l1.056 0.049 0.924 0.048c0.686 0.073 0.686 0.073 1.021 -0.34 5.193 -0.467 5.193 -0.467 6.822 0.485 0.771 0.911 1.124 1.714 1.501 2.844l0.404 -0.39c2.772 -2.539 5.28 -3.202 9.002 -3.042 3.115 0.257 4.693 1.609 6.905 3.765l0.25 -1.082c0.437 -1.31 0.667 -1.76 1.748 -2.58 1.892 -0.332 4.105 -0.473 5.839 0.45C201.544 173.435 201.544 173.435 202.397 174.434l0.822 -0.982c1.045 -1.041 1.808 -1.275 3.262 -1.309l0.743 0.023 0.762 0.009c1.167 0.057 1.887 0.144 2.88 0.788 0.492 0.582 0.863 1.115 1.185 1.804l0.915 -0.791c1.869 -1.614 3.429 -1.661 5.826 -1.664l0.924 -0.025c2.652 -0.011 4.459 0.692 6.461 2.417 0.972 1.03 1.129 1.978 1.186 3.391l0.333 -0.333c1.46 -0.122 2.925 -0.124 4.39 -0.145l1.244 -0.047c3.4 -0.042 3.4 -0.042 4.628 1.087 1.083 1.651 0.998 2.859 0.723 4.765 -0.528 1.79 -1.393 3.31 -2.996 4.328 -1.258 0.249 -2.468 0.205 -3.745 0.146 -0.335 -0.007 -0.669 -0.013 -1.014 -0.019 -2.432 -0.061 -2.432 -0.061 -3.23 -0.46l-0.312 1.144c-0.798 2.13 -2.516 3.981 -4.585 4.927 -1.415 0.328 -2.747 0.364 -4.195 0.358l-0.811 0.017c-1.742 0.001 -3.124 -0.276 -4.738 -0.937 -0.802 -0.218 -1.232 -0.138 -2.004 0.15l-0.472 0.514c-0.937 0.863 -2.073 0.596 -3.283 0.558 -2.17 -0.175 -3.336 -0.988 -4.9 -2.403l-0.821 0.984c-1.054 1.051 -1.816 1.263 -3.283 1.27l-0.744 -0.028 -0.749 0.015c-1.372 -0.021 -1.928 -0.142 -3.047 -1.007 -0.603 -0.802 -0.901 -1.252 -1.01 -2.233l-0.416 0.402 -0.583 0.535 -0.562 0.527c-2.032 1.411 -4.124 1.718 -6.554 1.699l-0.84 -0.003c-2.477 -0.065 -4.449 -0.642 -6.276 -2.383L177.097 191.079l-0.37 0.583c-0.855 1.173 -1.46 1.976 -2.923 2.281 -2.135 0.016 -4.339 -0.081 -6.083 -1.418 -0.823 -1.049 -0.765 -1.699 -0.742 -3.021l0.013 -1.307 0.034 -1.362q0.01 -0.689 0.018 -1.377 0.024 -1.683 0.065 -3.367h-1.664l0.032 0.855c0.034 1.053 0.059 2.107 0.078 3.16q0.015 0.682 0.041 1.364c0.158 4.26 0.158 4.26 -0.979 5.569 -1.25 0.946 -2.499 0.989 -4.019 0.932l-0.749 0.015c-1.343 -0.02 -1.859 -0.088 -2.965 -0.944 -0.945 -1.201 -0.954 -1.799 -0.922 -3.312l0.007 -0.664c0.009 -0.696 0.03 -1.39 0.051 -2.086q0.013 -0.711 0.023 -1.421c0.018 -1.156 0.047 -2.313 0.081 -3.469h-1.332l0.023 1.01q0.01 0.67 0.018 1.341l0.023 1.322c-0.104 2.119 -0.518 3.634 -1.958 5.211l-0.649 0.732c-2.216 1.982 -3.898 2.248 -6.799 2.201l-0.976 0.016c-2.43 -0.013 -3.599 -0.45 -5.328 -2.179l-0.817 0.983c-1.062 1.057 -1.82 1.253 -3.292 1.284l-0.792 -0.015 -0.83 0.003q-0.865 0 -1.73 -0.015c-0.881 -0.013 -1.76 -0.007 -2.641 0.002q-0.843 -0.003 -1.686 -0.011l-0.794 0.007c-1.406 -0.036 -1.923 -0.125 -3.06 -1.039 -0.608 -0.785 -0.895 -1.224 -1.003 -2.197l-0.597 0.486 -0.797 0.637 -0.784 0.632c-1.874 1.317 -3.521 1.362 -5.749 1.366l-0.872 0.025c-2.63 0.012 -4.568 -0.779 -6.514 -2.563l-0.583 -0.525L106.192 190.413l-0.451 0.475c-2.294 2.362 -3.917 3.226 -7.226 3.291 -2.329 0.013 -4.201 -0.455 -6.304 -1.435l-1.144 -0.499c-0.925 -0.542 -1.508 -0.997 -2.185 -1.831 -0.326 -1.855 -0.419 -3.981 0.666 -5.597l0.666 -0.728 -0.486 -0.494c-1.083 -1.77 -0.879 -4.485 -0.513 -6.497 0.59 -1.166 1.303 -1.872 2.33 -2.663l0.874 -0.791c3.368 -2.304 8.52 -1.662 12.026 -0.004M114.181 182.091l-0.666 1.332 1.664 0.333v-1.332zm70.24 0.333v1.332l0.999 -0.333 -0.333 -0.999zm-136.459 -10.045 1.065 -0.022C49.933 172.437 49.933 172.437 51.015 173.207 51.598 174.101 51.598 174.101 51.931 175.1l0.62 -0.425 0.816 -0.553 0.807 -0.55c2.243 -1.398 5.527 -1.031 8.077 -0.802 1.204 0.31 2.252 0.712 3.329 1.332l0.634 -0.821c1.41 -1.155 2.426 -1.081 4.192 -1.031l0.849 -0.011c1.416 0.017 2.134 0.08 3.344 0.876L75.233 173.768l0.415 -0.489c1.025 -0.894 2.233 -0.68 3.538 -0.676l0.81 -0.029 0.789 -0.003 0.715 -0.007c1.226 0.347 1.649 0.827 2.387 1.869 0.249 1.321 0.233 2.623 0.221 3.963l0.005 1.168q0.002 1.22 -0.009 2.441c-0.009 1.245 0 2.489 0.011 3.734q-0.002 1.186 -0.007 2.373l0.01 1.127c-0.039 2.566 -0.039 2.566 -0.992 3.903 -0.861 0.569 -1.248 0.808 -2.257 0.807l-0.739 0.002 -0.757 -0.024 -0.762 0.011c-1.237 -0.017 -1.912 -0.09 -2.888 -0.876L75.233 192.41c-0.822 0.383 -1.348 0.682 -1.997 1.332 -0.977 0.156 -1.966 0.123 -2.954 0.125l-0.823 0.025c-2.012 0.01 -2.012 0.01 -3.07 -0.823L65.912 192.41c-0.897 0.343 -1.717 0.696 -2.549 1.182 -1.363 0.591 -2.435 0.636 -3.901 0.608l-0.762 -0.01c-2.425 -0.068 -4.137 -0.424 -5.938 -2.175L51.931 191.079l-0.437 0.77c-0.489 0.779 -0.86 1.313 -1.561 1.893a26.964 26.964 0 0 1 -2.94 0.168l-0.877 0.01q-0.919 0.007 -1.838 0.007c-0.934 0.002 -1.867 0.02 -2.801 0.039q-0.894 0.005 -1.788 0.006l-0.842 0.022c-1.426 -0.017 -2.325 -0.157 -3.409 -1.125 -0.924 -1.082 -1.053 -1.927 -1.014 -3.358l0.02 -1.255 0.051 -1.296 0.027 -1.32q0.036 -1.609 0.098 -3.216h-1.664l0.027 0.86c0.028 1.058 0.049 2.115 0.065 3.173q0.012 0.686 0.034 1.371c0.02 0.658 0.029 1.317 0.037 1.976l0.027 1.199c-0.246 1.398 -0.746 1.879 -1.854 2.74 -0.682 0.215 -0.682 0.215 -1.342 0.221l-0.735 0.007 -0.753 -0.02 -0.753 0.02 -0.735 -0.007 -0.66 -0.006c-1.119 -0.354 -1.63 -0.969 -2.347 -1.88 -0.189 -1.106 -0.189 -1.106 -0.162 -2.347l0.007 -0.665c0.009 -0.696 0.03 -1.39 0.051 -2.086q0.013 -0.711 0.023 -1.421c0.018 -1.156 0.047 -2.313 0.081 -3.469h-1.997l0.146 1.165c0.018 1.677 -0.81 2.48 -1.934 3.64L19.64 187.417l-0.333 0.333c-1.175 0.13 -2.356 0.139 -3.537 0.166l-0.995 0.055c-1.707 0.032 -2.865 -0.051 -4.178 -1.207 -1.171 -1.388 -1.276 -2.618 -1.194 -4.382l-0.01 -0.792c0.029 -1.422 0.141 -2.012 1.045 -3.162 1.085 -0.82 1.892 -0.967 3.209 -0.997l1.065 -0.027c3.287 -0.041 3.287 -0.041 4.594 0.36l-0.059 -0.67 -0.045 -0.891 -0.059 -0.877c0.241 -1.32 0.773 -1.74 1.827 -2.555 1.037 -0.224 2.043 -0.186 3.1 -0.151l0.922 0.01c0.99 0.012 1.979 0.035 2.969 0.058 1.022 0.014 2.045 0.025 3.067 0.036q1.021 0.011 2.041 0.024c3.167 0.038 6.318 -0.053 9.482 -0.192 1.803 -0.078 3.605 -0.144 5.409 -0.176M58.589 182.423v1.332h1.332v-0.999zm6.658 0.333v0.999Z" fill="#010000"/><path d="M12.317 115.18h224.035v5.992H12.317z" fill="#87C6E1"/><path d="M196.072 127.164q4.103 0.031 8.205 0.079 1.905 0.023 3.812 0.037 1.845 0.014 3.691 0.039 0.698 0.008 1.395 0.012c6.473 0.032 12.091 1.313 17.185 5.493l0.727 0.576c2.783 2.457 4.905 6.707 5.265 10.409l0.131 1.212c0.539 5.762 -0.605 10.753 -4.126 15.433l-0.454 0.62C228.273 165.685 222.329 167.728 216.711 168.442q-1.079 0.04 -2.159 0.038h-1.252l-1.332 -0.005 -1.378 -0.002q-1.804 -0.002 -3.607 -0.008 -1.845 -0.005 -3.689 -0.007Q199.684 168.453 196.072 168.442l0.378 -0.428a76.232 76.232 0 0 0 1.065 -1.248C198.069 166.112 198.069 166.112 198.564 165.612c1.71 -1.919 1.412 -4.335 1.405 -6.766q0.007 -0.735 0.015 -1.47c0.013 -1.293 0.017 -2.585 0.018 -3.877 0.003 -1.282 0.016 -2.563 0.027 -3.844 0.019 -2.24 0.026 -4.48 0.028 -6.72 0.003 -1.593 0.026 -3.183 0.059 -4.776l0.019 -1.242q0.017 -1.133 0.051 -2.267c0.026 -2.215 -0.269 -3.599 -1.452 -5.487 -0.674 -0.626 -0.674 -0.626 -1.415 -0.978A68.242 68.242 0 0 1 196.072 127.497zm15.313 10.985c-0.297 1.523 -0.382 2.995 -0.377 4.542l-0.001 0.734q0 0.769 0.002 1.538 0.002 1.146 -0.002 2.292c-0.001 3.411 0.142 6.798 0.378 10.201 3.958 0.125 7.272 -0.458 10.652 -2.663 1.958 -1.862 3.012 -4.268 3.142 -6.949 -0.063 -1.865 -0.638 -3.384 -1.477 -5.035l-0.33 -0.668c-1.144 -1.929 -2.956 -2.586 -4.996 -3.326l-0.677 -0.25c-2.049 -0.626 -4.193 -0.474 -6.313 -0.416" fill="#FFF"/><path d="M84.221 127.164a206.391 206.391 0 0 1 5.098 -0.041q0.866 -0.001 1.731 -0.02c4.772 -0.099 4.772 -0.099 6.492 1.083 0.762 0.84 1.381 1.685 1.992 2.639a55.925 55.925 0 0 0 0.941 1.145l0.806 1.039 0.454 0.584c1.217 1.567 2.419 3.145 3.624 4.722q1.081 1.415 2.164 2.83l0.495 0.646c1.814 2.362 3.679 4.623 5.709 6.805 1.034 1.144 1.979 2.347 2.919 3.568C117.134 152.83 117.134 152.83 117.843 153.129q0.035 -4.115 0.052 -8.23c0.005 -1.274 0.012 -2.548 0.024 -3.822 0.011 -1.23 0.017 -2.461 0.02 -3.691q0.003 -0.703 0.011 -1.405c0.007 -0.658 0.008 -1.316 0.008 -1.974l0.007 -1.134c-0.139 -1.214 -0.488 -2.005 -1.119 -3.046 -0.886 -0.715 -0.886 -0.715 -1.893 -1.269A97.87 97.87 0 0 1 113.182 127.497v-0.333h16.312v0.666c-0.548 0.455 -0.548 0.455 -1.269 0.957 -1.452 1.01 -2.403 1.928 -2.726 3.703 -0.032 0.856 -0.047 1.701 -0.044 2.557l-0.001 0.787c-0.001 0.869 0.001 1.738 0.004 2.607l0.002 0.907c0.006 2.002 0.017 4.005 0.032 6.007q0.012 1.753 0.02 3.505c0.012 2.047 0.032 4.095 0.057 6.141q0.013 1.205 0.02 2.41c0.007 1.134 0.023 2.267 0.04 3.401l0.001 1.026c0.041 1.972 0.23 3.1 1.533 4.607 0.844 0.742 0.844 0.742 1.664 1.332l0.666 0.666c-1.526 0.018 -3.051 0.018 -4.577 0.003 -0.712 -0.003 -1.421 0.012 -2.132 0.029 -3.165 -0.025 -3.165 -0.025 -4.299 -0.889 -0.539 -0.702 -0.539 -0.702 -1.047 -1.523 -0.733 -1.169 -1.6 -2.16 -2.508 -3.195q-0.524 -0.607 -1.047 -1.214l-0.525 -0.609c-3.781 -4.388 -7.46 -8.858 -10.973 -13.464 -1.58 -2.062 -3.22 -4.078 -4.849 -6.101 -0.294 1.267 -0.378 2.447 -0.386 3.747l-0.01 1.252 -0.004 1.345 -0.003 0.689q-0.007 1.804 -0.009 3.607c-0.002 1.238 -0.01 2.477 -0.019 3.715 -0.006 0.956 -0.008 1.911 -0.009 2.868a184.754 184.754 0 0 1 -0.008 1.369 169.108 169.108 0 0 0 -0.003 1.919l-0.004 1.1c0.185 1.555 0.723 2.657 1.874 3.716l0.807 0.576A71.904 71.904 0 0 1 101.198 168.442v0.333l-0.95 -0.031q-1.771 -0.057 -3.542 -0.112l-1.523 -0.049c-2.878 -0.093 -5.752 -0.17 -8.631 -0.142 0.434 -0.893 0.863 -1.624 1.519 -2.372 1.089 -1.284 1.187 -1.82 1.212 -3.469l0.02 -1.179 0.017 -1.29 0.021 -1.336c0.023 -1.438 0.042 -2.876 0.061 -4.314l0.02 -1.468c0.026 -1.945 0.051 -3.889 0.074 -5.834 0.028 -2.365 0.062 -4.729 0.113 -7.094 0.022 -1.086 0.038 -2.172 0.052 -3.258q0.011 -0.711 0.031 -1.421c0.167 -2.718 0.167 -2.718 -0.864 -5.132 -0.931 -0.768 -1.804 -1.36 -2.88 -1.904l-0.985 -0.507L84.221 127.497z" fill="#FEFEFE"/><path d="M157.79 12.65c1.387 0.807 2.437 1.658 3.329 2.996 0.232 1.988 -0.009 2.971 -1.235 4.545C159.454 20.639 159.454 20.639 158.788 20.972l-0.333 13.648h-0.999v2.663h55.925l0.666 -1.997c0.872 -1.006 1.395 -1.575 2.663 -1.997 1.797 -0.116 2.859 -0.143 4.328 0.999l0.728 0.562c0.847 1.08 1.226 2.055 1.269 3.433 -0.444 1.785 -1.48 3.069 -3.019 4.047 -1.179 0.516 -2.026 0.446 -3.306 0.281 -0.787 -0.385 -1.381 -0.716 -1.997 -1.332a30.626 30.626 0 0 0 -1.685 -0.021l-0.927 0.009L211.385 41.278v0.333H157.457v3.995c-0.571 0.973 -0.571 0.973 -1.311 1.581l-0.737 0.64C154.794 48.269 154.794 48.269 154.461 48.269v-6.991h-4.66l0.503 2.118c0.658 3.676 0.971 7.566 -1.125 10.835 -1.92 2.505 -4.141 4.711 -6.431 6.874l-0.508 0.482c-5.658 5.337 -5.658 5.337 -7.617 6.503 -0.761 0.461 -1.25 0.79 -1.799 1.483 -0.153 0.811 -0.153 0.811 -0.133 1.738l-0.013 1.091 0.002 1.197 -0.01 1.26q-0.012 1.71 -0.014 3.421c-0.003 1.192 -0.012 2.383 -0.02 3.575a2185.419 2185.419 0 0 0 -0.032 6.77 3248.003 3248.003 0 0 1 -0.039 7.706c-0.031 5.285 -0.055 10.569 -0.074 15.854h-4.993a1512.983 1512.983 0 0 1 -0.259 -16.799c-0.026 -2.601 -0.061 -5.201 -0.118 -7.801 -0.05 -2.269 -0.082 -4.537 -0.093 -6.806a142.81 142.81 0 0 0 -0.058 -3.598c-0.242 -8.249 -0.242 -8.249 2.214 -10.951a26.631 26.631 0 0 1 2.711 -2.217c0.745 -0.536 1.405 -1.145 2.075 -1.771 1.037 -0.879 2.097 -1.731 3.153 -2.587 6.734 -5.379 6.734 -5.379 9.81 -13.072 0.224 -3.232 -0.062 -6.423 -0.46 -9.63h8.655V20.639l-1.664 -0.333c-0.943 -1.071 -1.303 -1.763 -1.477 -3.183 0.224 -1.76 0.869 -2.656 2.226 -3.745 1.241 -0.817 2.083 -1.017 3.579 -0.728" fill="#AECAD3"/><path d="M170.772 132.823c-0.192 1.261 -0.742 1.888 -1.602 2.809 -0.767 0.831 -1.491 1.644 -2.185 2.538L166.445 138.815h-0.666v-0.666l-0.666 -0.229c-0.837 -0.366 -1.476 -0.743 -2.226 -1.248 -3.43 -2.147 -7.59 -2.453 -11.508 -1.622 -3.344 1.113 -6.303 3.43 -8 6.551 -1.725 3.779 -1.642 7.617 -0.237 11.528 1.481 3.177 3.675 5.445 6.991 6.658 4.749 1.419 9.483 1.25 13.981 -0.999l-0.012 -1.069 -0.009 -1.386 -0.009 -0.705c-0.008 -1.758 -0.008 -1.758 0.362 -2.499q-2.049 0.07 -4.099 0.146l-1.178 0.04 -1.128 0.042 -1.041 0.037c-0.913 0.036 -0.913 0.036 -1.876 0.401l-0.025 -0.585q-0.059 -1.32 -0.12 -2.64l-0.04 -0.92 -0.042 -0.894 -0.037 -0.819c-0.067 -0.951 -0.067 -0.951 -0.401 -2.464l20.639 -0.333c-1.332 2.33 -1.332 2.33 -2.06 3.287 -1.185 2.042 -0.989 4.631 -1.042 6.95l-0.021 0.793q-0.032 1.236 -0.061 2.472l-0.044 1.691q-0.053 2.057 -0.102 4.114c-8.216 3.063 -15.328 5.608 -23.968 2.663l-0.908 -0.28c-2.472 -0.852 -4.42 -2.392 -6.416 -4.048l-0.752 -0.623c-3.891 -3.548 -5.83 -8.732 -6.079 -13.908 -0.086 -4.53 1.161 -8.74 3.835 -12.433l0.442 -0.614c3.511 -4.439 9.002 -7.459 14.58 -8.27 6.794 -0.548 12.844 1.911 18.267 5.888m-106.192 -5.326c0.45 0.708 0.797 1.364 1.144 2.122l0.334 0.698q0.379 0.795 0.753 1.592a277.297 277.297 0 0 0 1.461 3.033c1.774 3.645 3.509 7.301 5.145 11.009 1.192 2.672 2.525 5.271 3.849 7.88 1.408 2.797 2.691 5.634 3.905 8.52 1.113 2.637 1.972 4.167 4.38 5.758l-0.333 0.666 -12.983 -0.333 0.999 -1.664c0.178 -1.775 -0.178 -3.124 -0.791 -4.785 -0.146 -0.408 -0.294 -0.816 -0.445 -1.235 -0.321 -1.005 -0.321 -1.005 -1.095 -1.303a24.634 24.634 0 0 0 -1.516 -0.043l-0.953 -0.003 -1.033 0.002 -1.06 -0.001q-1.112 0 -2.224 0.002 -1.7 0.002 -3.399 -0.002 -1.08 0 -2.159 0.001l-1.027 -0.002 -0.963 0.003 -0.843 0.001c-0.864 0.046 -1.634 0.136 -2.467 0.375 -0.642 0.905 -0.642 0.905 -1.103 2.039l-0.516 1.126c-0.42 1.29 -0.566 2.147 -0.378 3.493l1.664 1.997h-13.981l1.664 -1.664c1.819 -1.826 2.798 -3.834 3.828 -6.179q0.525 -1.166 1.051 -2.332l0.274 -0.611c0.935 -2.087 1.904 -4.158 2.875 -6.228q0.738 -1.575 1.473 -3.152l0.292 -0.625a1523.635 1523.635 0 0 0 4.41 -9.534c0.428 -0.931 0.862 -1.861 1.296 -2.79l0.75 -1.63 0.347 -0.732c0.544 -1.197 0.838 -1.89 0.381 -3.138 -0.612 -0.577 -0.612 -0.577 -1.352 -1.061A52.929 52.929 0 0 1 54.927 127.83v-0.333c1.359 -0.066 2.718 -0.127 4.078 -0.187l1.169 -0.057 1.125 -0.049 1.035 -0.048c0.836 0.007 1.469 0.039 2.247 0.34m-2.663 20.639 -0.666 1.997h1.664l-0.666 -1.997z" fill="#FFF"/><path d="M45.606 54.261c0.614 0.381 1.147 0.814 1.706 1.272 1.107 0.697 2.339 0.694 3.62 0.726l-0.333 -0.999c6.687 -0.062 13.375 -0.109 20.062 -0.138 3.105 -0.014 6.21 -0.033 9.315 -0.063q4.06 -0.04 8.12 -0.05c1.433 -0.003 2.866 -0.012 4.299 -0.031a247.004 247.004 0 0 1 4.048 -0.02q0.742 -0.001 1.483 -0.016c3.743 -0.073 3.743 -0.073 4.997 0.857 0.575 0.679 0.575 0.679 1.086 1.412 0.556 0.765 1.104 1.219 1.871 1.767 4.681 3.354 9.973 7.414 11.274 13.305 0.896 5.706 0.544 11.575 0.22 17.317 -0.136 2.468 -0.2 4.937 -0.26 7.408 -0.124 5.063 -0.336 10.119 -0.603 15.176h-5.326l0.048 -1.545c0.144 -4.842 0.239 -9.682 0.288 -14.526 0.026 -2.49 0.069 -4.977 0.152 -7.465 0.094 -2.872 0.146 -5.741 0.13 -8.615l-0.003 -0.7c-0.051 -5.383 -0.307 -10.044 -4.214 -14.088a31.625 31.625 0 0 0 -4.908 -3.769L101.864 60.919v-0.666l-0.777 0.001q-9.365 0.011 -18.73 0.016 -4.529 0.002 -9.058 0.008 -3.948 0.005 -7.897 0.007 -2.09 0 -4.179 0.003 -1.969 0.004 -3.938 0.003 -0.721 0 -1.441 0.002c-2.442 0.006 -4.822 -0.038 -7.243 -0.373l-0.25 0.749c-0.554 1.218 -1.098 1.958 -2.345 2.512 -1.292 0.409 -1.962 0.43 -3.294 0.047 -1.475 -0.862 -2.55 -1.658 -3.1 -3.308 -0.168 -1.456 -0.086 -2.375 0.728 -3.579 1.415 -1.759 2.962 -2.571 5.264 -2.081" fill="#F8FBFD"/><path d="M63.123 8.563C65.494 10.446 67.285 13.335 67.909 16.312c0.197 3.288 0.375 6.389 -1.332 9.321l-0.451 0.795C64.099 29.716 61.283 31.583 57.59 32.623c-4.412 0.425 -8.069 -0.217 -11.776 -2.809 -3.02 -2.597 -4.328 -6.604 -4.639 -10.465C41.233 17.591 41.704 15.969 42.277 14.314l0.347 -1.005c1.435 -3.44 4.348 -5.599 7.746 -7.026 4.614 -1.175 8.82 -0.305 12.752 2.28" fill="#C8F6FF"/><path d="M122.836 9.321c1.401 0.788 2.187 1.694 2.871 3.142C125.832 13.648 125.832 13.648 125.349 14.642c-0.769 1.701 -0.656 3.433 -0.648 5.27l-0.007 1.196q-0.007 1.637 -0.005 3.275c0 1.179 -0.005 2.358 -0.01 3.537q-0.011 3.061 -0.013 6.123c-0.002 2.951 -0.01 5.901 -0.019 8.853q-0.021 7.181 -0.032 14.363 -0.01 6.976 -0.028 13.951l-0.002 0.869 -0.011 4.316c-0.031 11.93 -0.055 23.861 -0.074 35.791h-4.993l-0.001 -1.493a21446.738 21446.738 0 0 0 -0.05 -39.377l-0.002 -0.868c-0.009 -4.638 -0.012 -9.276 -0.013 -13.913q-0.002 -7.136 -0.022 -14.272a2313.915 2313.915 0 0 1 -0.008 -8.81 1113.515 1113.515 0 0 0 -0.012 -6.038c-0.005 -1.162 -0.007 -2.324 -0.003 -3.485 0.004 -1.259 -0.002 -2.518 -0.011 -3.777l0.011 -1.116c-0.003 -2.036 -0.003 -2.036 -1.054 -3.727L117.51 14.647c-0.25 -1.103 -0.25 -1.103 0 -2.33 1.476 -2.145 2.62 -3.307 5.326 -2.996" fill="#FBFDFE"/><path d="M195.638 44.854c3.112 0.194 6.22 0.326 9.337 0.415l0.674 0.019q1.674 0.048 3.349 0.093c9.128 0.251 18.24 0.674 27.355 1.223v4.66q-8.239 0.047 -16.477 0.069 -3.826 0.009 -7.652 0.032 -3.337 0.02 -6.673 0.025c-1.176 0.002 -2.353 0.006 -3.53 0.016 -1.317 0.011 -2.634 0.011 -3.951 0.01l-1.167 0.015c-2.223 -0.011 -3.957 -0.321 -6 -1.215 -1.687 -0.579 -3.415 -0.229 -5.047 0.393 -1.237 0.364 -2.239 0.391 -3.528 0.369l-0.709 -0.009c-0.767 -0.011 -1.535 -0.027 -2.302 -0.043q-0.802 -0.013 -1.604 -0.025c-1.402 -0.022 -2.804 -0.049 -4.206 -0.076 -1.433 -0.027 -2.866 -0.05 -4.298 -0.073Q164.997 50.68 160.786 50.599l-0.304 0.63c-0.384 0.745 -0.807 1.251 -1.381 1.859l-0.629 0.668 -0.682 0.713 -0.707 0.746c-2.034 2.134 -4.114 4.222 -6.215 6.289 -1.104 1.091 -2.177 2.187 -3.188 3.367 -1.755 2.039 -3.708 3.889 -5.623 5.776 -1.519 1.505 -2.994 3.013 -4.357 4.662 -0.676 0.726 -1.435 1.307 -2.214 1.921 -0.513 -4.388 -0.021 -7.181 2.689 -10.707a198.402 198.402 0 0 1 1.227 -1.498l0.641 -0.79c1.632 -1.993 3.344 -3.901 5.105 -5.781l0.788 -0.844c14.168 -14.965 30.322 -13.988 49.701 -12.757" fill="#A7C5CE"/><path d="M37.533 33.081 38.282 33.622l0.562 0.395C39.281 34.621 39.281 34.621 39.947 37.284h76.565v3.995h-9.654v4.993h9.654v4.66h-9.987v2.663a571.238 571.238 0 0 1 -1.103 -0.936l-0.621 -0.527L104.194 51.598l-0.572 -0.426c-0.667 -0.895 -0.521 -1.704 -0.489 -2.798l0.028 -1.19L103.196 46.272h0.666v-4.993q-13.004 -0.012 -26.008 -0.017a23320.905 23320.905 0 0 1 -12.075 -0.008q-5.261 -0.005 -10.521 -0.007 -2.787 0 -5.574 -0.003 -2.621 -0.003 -5.241 -0.003 -0.965 0 -1.929 -0.002 -1.312 -0.002 -2.623 0l-0.779 -0.003c-1.29 -0.021 -1.29 -0.021 -2.494 0.376 -1.592 0.162 -2.589 0.183 -3.932 -0.728 -1.411 -1.153 -1.989 -2.051 -2.226 -3.891 0.066 -1.579 0.729 -2.605 1.831 -3.703 1.809 -1.258 3.293 -1.183 5.243 -0.208" fill="#CAF7FF"/><path d="M58.256 63.249c32.083 -3.136 32.083 -3.136 41.35 4.453 6.226 5.471 8.948 11.415 9.522 19.674 0.461 8.282 -0.081 16.568 -0.938 24.808h-5.326l0.061 -1.127c0.186 -3.557 0.31 -7.113 0.378 -10.674 0.037 -1.831 0.093 -3.655 0.199 -5.483 0.415 -7.412 0.461 -14.281 -4.733 -20.096 -4.528 -4.686 -9.217 -6.221 -15.651 -6.375 -2.643 -0.022 -5.274 0.093 -7.913 0.237 -1.954 0.094 -3.91 0.123 -5.867 0.157 -3.809 0.078 -7.61 0.23 -11.415 0.418z" fill="#AFE1FC"/><path d="M184.421 64.248c0.671 0.322 1.339 0.651 1.997 0.999 0.921 0.095 1.747 0.14 2.663 0.125l0.692 0.012c1.12 -0.007 1.877 -0.083 2.86 -0.636 1.438 -0.646 2.611 -0.637 4.167 -0.623l0.912 -0.004c0.991 -0.003 1.982 0.002 2.973 0.007l2.069 -0.001q2.164 0 4.328 0.01c1.852 0.008 3.704 0.008 5.557 0.005q2.134 -0.001 4.268 0.004 1.025 0.002 2.05 0.001c0.952 0 1.904 0.004 2.857 0.009l0.861 -0.002c1.949 0.018 1.949 0.018 2.691 0.76l-0.67 0.271c-2.175 0.965 -3.336 1.883 -4.324 4.057l-0.362 0.763c-0.379 1.123 -0.446 2.153 -0.512 3.336l-0.076 1.265L219.374 75.566h-3.662v-7.324H164.447v2.33c-0.655 0.774 -0.655 0.774 -1.584 1.468l-1.047 0.815 -0.565 0.43c-9.989 7.636 -9.989 7.636 -15.096 18.623 -0.377 3.065 -0.389 6.126 -0.267 9.207l0.033 0.836A120.839 120.839 0 0 0 146.804 112.184h-3.662c-1.774 -9.729 -3.405 -21.252 2.447 -29.865C154.951 69.337 167.756 58.921 184.421 64.248" fill="#A2B8C1"/><path d="M12.983 72.237c9.459 -0.297 18.918 -0.519 28.381 -0.655 4.396 -0.065 8.788 -0.153 13.182 -0.299 3.836 -0.127 7.67 -0.208 11.509 -0.236 2.028 -0.017 4.05 -0.054 6.077 -0.147 7.616 -0.338 13.954 -0.366 19.901 4.913a76.565 76.565 0 0 1 5.681 5.961l0.67 0.764c1.633 2.058 1.738 3.768 1.483 6.344 -1.285 -0.605 -2.285 -1.425 -3.35 -2.351l-1.166 -1 -0.586 -0.502c-0.787 -0.669 -1.587 -1.322 -2.388 -1.972a1526.964 1526.964 0 0 1 -1.831 -1.498l-0.579 -0.474a394.807 394.807 0 0 1 -1.813 -1.502l-0.583 -0.477c-0.464 -0.388 -0.91 -0.796 -1.353 -1.208v-0.666H12.983z" fill="#B3EBF8"/><path d="M18.642 44.274c1.321 0.518 2.198 1.133 2.996 2.33 0.735 0.121 0.735 0.121 1.54 0.063l0.825 -0.028L24.634 46.605v-0.333h75.566v4.66a66703.728 66703.728 0 0 1 -32.658 0.019q-5.441 0.002 -10.882 0.007 -5.586 0.005 -11.171 0.006 -3.136 0 -6.272 0.004 -2.953 0.003 -5.906 0.002 -1.083 0 -2.165 0.002 -1.481 0.002 -2.962 0l-0.861 0.003c-1.808 -0.005 -3.558 -0.149 -5.352 -0.376l-0.187 0.728c-0.816 1.596 -2.134 2.375 -3.808 2.933 -1.881 0 -3.135 -0.734 -4.452 -1.997 -0.989 -1.13 -1.18 -1.642 -1.29 -3.121 0.104 -1.512 0.467 -2.291 1.57 -3.332C15.403 44.442 16.533 43.993 18.642 44.274" fill="#FBFEFF"/><path d="M39.614 126.831c-0.37 1.108 -0.5 1.185 -1.435 1.769 -1.48 1.006 -2.324 2.186 -2.892 3.89a55.26 55.26 0 0 0 -0.022 2.403l0.005 0.738q0.005 0.795 0.013 1.589 0.01 1.263 0.016 2.525c0.011 2.393 0.025 4.786 0.046 7.179q0.019 2.197 0.025 4.393 0.004 0.833 0.013 1.665c0.05 4.341 0.005 8.733 -3.091 12.129 -2.797 2.478 -5.834 3.576 -9.563 3.465C19.232 168.141 15.686 166.723 12.983 164.447c-0.43 -0.737 -0.43 -0.737 -0.666 -1.332l0.585 -0.634c1.571 -1.721 3.056 -3.459 4.408 -5.358 0.971 0.439 1.651 0.924 2.413 1.664 1.198 1.042 2.301 1.626 3.911 1.664 1.336 -0.416 2.473 -0.856 3.329 -1.997 0.321 -0.962 0.383 -1.603 0.401 -2.605l0.02 -0.992 0.017 -1.078 0.021 -1.125q0.022 -1.186 0.041 -2.373 0.03 -1.772 0.063 -3.544 0.042 -2.318 0.07 -4.637c0.018 -1.523 0.053 -3.045 0.1 -4.567l0.046 -2.148 0.041 -0.987c0.033 -2.199 -0.348 -3.255 -1.818 -4.905 -0.788 -0.658 -0.788 -0.658 -1.602 -1.124A58.589 58.589 0 0 1 22.969 127.497v-0.333l1.078 0.005q2.001 0.009 4.001 0.013 0.862 0.003 1.724 0.007c4.128 0.039 4.128 0.039 8.24 -0.286C38.615 126.831 38.615 126.831 39.614 126.831" fill="#FFF"/><path d="M189.93 10.854c3.142 1.789 5.599 4.103 6.638 7.617 0.671 3.322 0.14 6.126 -1.676 8.963C192.977 30.06 190.667 32.004 187.417 32.623c-3.444 0.377 -6.065 -0.37 -8.884 -2.351 -2.381 -1.959 -4.181 -4.832 -4.544 -7.922 -0.047 -3.439 0.876 -6.003 3.066 -8.666 3.493 -3.467 8.276 -4.927 12.875 -2.831"/><path d="m23.029 90.003 0.79 -0.019c0.867 -0.019 1.734 -0.029 2.602 -0.039q0.937 -0.017 1.874 -0.037c2.047 -0.038 4.094 -0.062 6.141 -0.084l1.059 -0.012c3.304 -0.037 6.608 -0.07 9.911 -0.089 4.208 -0.025 8.414 -0.075 12.621 -0.16 2.968 -0.058 5.935 -0.087 8.904 -0.095 1.768 -0.006 3.534 -0.023 5.302 -0.072 12.298 -0.321 12.298 -0.321 16.27 3.245 2.11 2.063 3.808 3.891 3.889 6.948 -0.016 0.985 -0.084 1.959 -0.182 2.939 -1.633 -1.33 -3.143 -2.764 -4.64 -4.244l-0.597 -0.584c-0.487 -0.486 -0.956 -0.99 -1.421 -1.496v-0.666l-0.989 0.005q-11.919 0.056 -23.839 0.082c-3.843 0.009 -7.686 0.02 -11.528 0.039q-5.025 0.025 -10.05 0.031c-1.774 0.002 -3.547 0.007 -5.32 0.02q-2.506 0.017 -5.012 0.012 -0.917 0 -1.835 0.01c-5.606 0.056 -5.606 0.056 -8.024 -1.49 -1.119 -0.646 -2.076 -0.535 -3.352 -0.477l-1.313 0.045L13.316 93.875v-2.33l0.853 0.047 1.144 0.037 1.124 0.047c1.128 -0.122 1.51 -0.253 2.443 -0.791 1.373 -0.708 2.617 -0.873 4.149 -0.88" fill="#9AC1D7"/><path d="M180.075 55.503 181.425 55.925v3.995h-17.976v1.997c-0.688 0.735 -1.314 1.295 -2.103 1.902q-0.696 0.564 -1.39 1.129l-0.75 0.603c-13.672 10.694 -13.672 10.694 -20.249 25.972 -0.226 2.826 -0.225 5.618 -0.079 8.448l0.047 0.93c0.212 3.794 0.636 7.53 1.222 11.283h-4.66c-2.04 -10.765 -4.058 -24.01 2.303 -33.644 9.738 -13.909 24.218 -28.114 42.286 -23.037" fill="#B5C7CE"/><path d="M234.354 97.204c1.425 1.116 2.161 2.254 2.663 3.995 -0.221 2.318 -1.27 3.785 -2.996 5.326 -1.649 0.55 -3.317 0.619 -4.931 -0.062 -0.819 -0.678 -1.417 -1.425 -2.06 -2.268 -1.14 -0.57 -2.448 -0.384 -3.703 -0.385l-0.965 -0.005c-1.075 -0.005 -2.149 -0.008 -3.224 -0.011l-2.303 -0.01q-3.134 -0.013 -6.268 -0.023c-2.181 -0.007 -4.363 -0.017 -6.544 -0.025q-5.495 -0.022 -10.99 -0.041a26293.276 26293.276 0 0 1 -15.525 -0.058q-14.521 -0.057 -29.041 -0.108v-3.662a66703.728 66703.728 0 0 1 32.658 -0.019q5.441 -0.002 10.882 -0.007 5.586 -0.005 11.171 -0.006 3.136 0 6.272 -0.004 2.953 -0.003 5.906 -0.002 1.083 0 2.165 -0.002 1.481 -0.002 2.962 0l0.861 -0.003c1.808 0.005 3.558 0.149 5.352 0.376l0.124 -0.613c0.381 -1.31 1.33 -2.053 2.471 -2.746 1.874 -0.872 3.265 -0.586 5.062 0.363" fill="#79B2D4"/><path d="M17.928 96.436c1.147 0.582 1.628 0.94 2.254 2.117 0.707 1.092 0.707 1.092 1.938 1.212q0.702 0.002 1.404 -0.026l0.783 -0.006c0.868 -0.008 1.735 -0.031 2.603 -0.054q0.933 -0.013 1.866 -0.023 2.011 -0.025 4.022 -0.064c2.126 -0.04 4.252 -0.059 6.378 -0.074 6.047 -0.044 12.094 -0.101 18.14 -0.213q5.007 -0.093 10.015 -0.106c1.765 -0.005 3.528 -0.024 5.292 -0.074 12.305 -0.337 12.305 -0.337 16.07 3.137 1.989 2.062 3.709 3.985 3.994 6.926 -0.051 1.009 -0.281 2.002 -0.476 2.994h-6.658v-8.655H19.973l-0.666 1.332c-1.218 1.033 -2.353 1.193 -3.901 1.136 -1.305 -0.237 -2.176 -0.862 -3.09 -1.802 -0.98 -1.454 -1.212 -2.589 -0.999 -4.328 0.579 -1.642 1.483 -2.673 3.044 -3.442 1.25 -0.445 2.32 -0.455 3.565 0.012" fill="#72ADD1"/><path d="M148.469 107.856a17917.776 17917.776 0 0 1 33.134 -0.073l0.704 -0.001c3.759 -0.006 7.518 -0.016 11.277 -0.029q5.787 -0.018 11.574 -0.022c2.166 -0.002 4.333 -0.006 6.499 -0.016q3.059 -0.013 6.119 -0.01 1.122 0 2.245 -0.008c1.022 -0.007 2.045 -0.005 3.067 -0.001l0.895 -0.012c1.744 0.017 2.94 0.304 4.446 1.198 1.066 0.543 2.075 0.513 3.263 0.555l0.685 0.03c0.548 0.023 1.097 0.039 1.645 0.053v2.663H148.469z" fill="#7DB5D6"/><path d="M193.076 126.831c-0.34 0.814 -0.617 1.291 -1.303 1.859 -1.374 1.14 -2.071 2.207 -2.271 3.979 -0.121 1.941 -0.091 3.881 -0.062 5.825q0.002 1.081 0.002 2.162 0.003 2.26 0.031 4.52c0.023 1.927 0.028 3.854 0.027 5.781 0 1.487 0.008 2.974 0.017 4.461q0.006 1.066 0.008 2.131c0.003 0.994 0.014 1.988 0.029 2.982l-0.002 0.881c0.047 2.245 0.613 4.053 2.167 5.717l0.609 0.459c0.364 0.281 0.725 0.564 1.082 0.853v0.333h-15.979l1.997 -2.33h0.666l0.271 -0.541C180.759 165.113 180.759 165.113 181.275 164.259c0.619 -1.463 0.626 -2.67 0.618 -4.241l0.007 -0.925c0.007 -1.007 0.005 -2.013 0.003 -3.019l0.005 -2.104q0.005 -2.203 -0.001 -4.405c-0.004 -1.881 0.003 -3.761 0.013 -5.642 0.006 -1.448 0.006 -2.896 0.004 -4.344q0 -1.04 0.006 -2.08a264.314 264.314 0 0 0 -0.004 -2.909l0.01 -0.865c-0.022 -1.79 -0.321 -2.809 -1.508 -4.231 -0.765 -0.63 -0.765 -0.63 -1.581 -1.103A56.591 56.591 0 0 1 177.43 127.497v-0.333l0.981 0.005q1.827 0.009 3.653 0.013 0.786 0.003 1.572 0.007c2.72 0.015 5.407 0.012 8.115 -0.286C192.41 126.831 192.41 126.831 193.076 126.831" fill="#FFF"/><path d="m16.977 82.224 0.575 0.498c1.098 0.726 2.153 0.627 3.424 0.604l0.821 -0.002c0.909 -0.004 1.818 -0.015 2.727 -0.026q0.977 -0.006 1.954 -0.011 2.106 -0.012 4.212 -0.03c2.223 -0.018 4.447 -0.025 6.67 -0.03l2.286 -0.005 1.156 -0.002c5.176 -0.012 10.352 -0.034 15.528 -0.079q5.237 -0.046 10.474 -0.042c1.846 0.001 3.692 -0.007 5.538 -0.033a254.993 254.993 0 0 1 5.219 -0.018q0.953 0.001 1.905 -0.022c3.519 -0.079 5.867 0.191 8.545 2.62a52.597 52.597 0 0 1 1.679 1.706c0.52 0.526 1.064 0.971 1.648 1.423C92.21 89.547 92.21 89.547 92.405 90.802a29.96 29.96 0 0 1 -0.07 1.346l-0.027 0.699c-0.023 0.565 -0.059 1.129 -0.098 1.693 -1.252 -1.022 -2.385 -2.019 -3.417 -3.264 -1.776 -2.094 -3.369 -3.915 -6.2 -4.287 -1.448 -0.088 -2.883 -0.068 -4.333 -0.028a303.928 303.928 0 0 1 -1.954 -0.009c-1.754 -0.007 -3.505 0.017 -5.259 0.047 -1.839 0.026 -3.678 0.025 -5.517 0.027 -3.084 0.008 -6.167 0.034 -9.25 0.073 -3.959 0.05 -7.917 0.071 -11.876 0.082 -3.407 0.01 -6.815 0.031 -10.223 0.055q-1.641 0.011 -3.283 0.02c-1.716 0.01 -3.432 0.028 -5.148 0.051q-0.945 0.012 -1.891 0.016c-0.859 0.005 -1.717 0.017 -2.576 0.032l-0.759 -0.001c-1.157 0.029 -1.752 0.082 -2.642 0.854L17.31 88.881c-1.279 0.349 -2.009 0.464 -3.246 -0.042 -1.156 -0.964 -1.661 -1.779 -1.914 -3.266 0.234 -1.436 0.819 -1.981 1.831 -3.017 1.018 -0.509 1.874 -0.41 2.996 -0.333" fill="#BBEEFA"/><path d="m22.509 107.456 0.778 0.003c0.861 0.003 1.721 0.012 2.582 0.02l1.85 0.009c1.675 0.009 3.351 0.022 5.026 0.035 1.751 0.013 3.501 0.023 5.251 0.033q4.973 0.031 9.946 0.067c3.774 0.028 7.548 0.052 11.322 0.075q11.646 0.073 23.292 0.158v4.328H13.316v-3.995l1.119 0.023q0.73 0.01 1.461 0.018l0.736 0.017c1.352 0.047 1.352 0.047 2.599 -0.391 1.076 -0.482 2.123 -0.416 3.279 -0.4" fill="#6199C5"/><path d="M170.525 72.01q0.674 0.001 1.349 -0.001a303.262 303.262 0 0 1 3.65 0.025c1.273 0.012 2.546 0.013 3.818 0.016 2.409 0.006 4.817 0.023 7.226 0.043 3.256 0.027 6.512 0.037 9.768 0.049 5.127 0.019 10.255 0.059 15.382 0.095v24.634h-3.662v-20.639c-6.309 0.013 -6.309 0.013 -12.619 0.03l-2.368 0.003 -1.248 0.005h-1.187l-1.033 0.002C188.748 76.232 188.748 76.232 187.75 75.899a64.581 64.581 0 0 0 -2.788 -0.063l-0.762 -0.012 -0.743 -0.002 -0.673 -0.004c-0.723 0.05 -0.723 0.05 -1.451 0.414 -0.992 0.364 -1.722 0.413 -2.775 0.408h-1.111l-1.188 -0.011 -1.224 -0.003c-1.289 -0.004 -2.578 -0.012 -3.867 -0.021q-1.312 -0.005 -2.623 -0.009 -3.214 -0.011 -6.427 -0.033a235.353 235.353 0 0 1 0.874 -1.04l0.492 -0.585L164.115 74.234l0.793 -1.065c1.545 -1.513 3.589 -1.194 5.618 -1.159" fill="#A4C2CB"/><path d="M189.272 79.334c2.006 1.389 3.975 3.087 4.681 5.498 0.4 2.387 0.474 4.956 -0.878 7.045 -2.029 2.427 -3.944 4.426 -7.209 4.748 -2.505 0.1 -4.339 -0.183 -6.298 -1.788 -2.346 -2.206 -3.803 -4.17 -3.991 -7.433 0.13 -2.999 1.631 -5.281 3.796 -7.279 3.021 -2.371 6.536 -2.689 9.898 -0.791" fill="#A2BFD5"/><path d="M207.723 134.487q1.944 0.023 3.887 0.069c0.651 0.013 1.303 0.021 1.955 0.028 4.117 0.105 8.24 0.852 11.349 3.738 2.663 2.866 3.485 6.152 3.906 9.937 -0.322 3.11 -1.288 5.915 -3.454 8.197l-0.58 0.62c-3.595 3.484 -7.966 3.763 -12.715 3.728l-1.171 -0.005q-1.422 -0.006 -2.845 -0.016c-0.332 -5.759 -0.373 -11.501 -0.354 -17.269q0.003 -1.322 0.004 -2.642 0.006 -3.194 0.016 -6.387m3.662 3.662c-0.297 1.523 -0.382 2.995 -0.377 4.542l-0.001 0.734q0 0.769 0.002 1.538c0.002 0.764 0 1.528 -0.002 2.292 -0.001 3.411 0.142 6.798 0.378 10.201 3.958 0.125 7.272 -0.458 10.652 -2.663 1.958 -1.862 3.012 -4.268 3.142 -6.949 -0.063 -1.865 -0.638 -3.384 -1.477 -5.035l-0.33 -0.668c-1.144 -1.929 -2.956 -2.586 -4.996 -3.326l-0.677 -0.25c-2.049 -0.626 -4.193 -0.474 -6.313 -0.416" fill="#010000"/><path d="M63.123 8.563C65.494 10.446 67.285 13.335 67.909 16.312c0.197 3.288 0.375 6.389 -1.332 9.321l-0.451 0.795C64.099 29.716 61.283 31.583 57.59 32.623c-4.412 0.425 -8.069 -0.217 -11.776 -2.809 -3.02 -2.597 -4.328 -6.604 -4.639 -10.465C41.233 17.591 41.704 15.969 42.277 14.314l0.347 -1.005c1.435 -3.44 4.348 -5.599 7.746 -7.026 4.614 -1.175 8.82 -0.305 12.752 2.28M46.272 12.65c-1.603 2.263 -2.595 5.163 -2.192 7.943 0.234 0.931 0.523 1.811 0.861 2.71l0.236 0.716c0.98 2.449 3.256 4.148 5.533 5.354 2.444 0.934 5.098 0.953 7.567 0.11 3.026 -1.368 5.376 -3.778 6.637 -6.845 0.812 -2.579 0.575 -5.421 -0.533 -7.861 -1.625 -2.774 -3.984 -4.888 -7.036 -5.94C53.048 7.805 49.258 9.579 46.272 12.65"/><path d="M124.501 71.904v40.28h-4.993a1318.575 1318.575 0 0 1 -0.207 -13.986c-0.021 -2.165 -0.049 -4.33 -0.094 -6.495 -0.044 -2.092 -0.068 -4.183 -0.078 -6.275a132.823 132.823 0 0 0 -0.043 -2.387c-0.18 -6.888 -0.18 -6.888 1.83 -9.134C123.016 71.904 123.016 71.904 124.501 71.904" fill="#729FC0"/><path d="M189.93 10.854c3.142 1.789 5.599 4.103 6.638 7.617 0.671 3.322 0.14 6.126 -1.676 8.963C192.977 30.06 190.667 32.004 187.417 32.623c-3.444 0.377 -6.065 -0.37 -8.884 -2.351 -2.381 -1.959 -4.181 -4.832 -4.544 -7.922 -0.047 -3.439 0.876 -6.003 3.066 -8.666 3.493 -3.467 8.276 -4.927 12.875 -2.831M178.856 15.659A16.478 16.478 0 0 0 177.763 17.643l-0.363 0.61c-0.823 1.961 -0.607 4.451 0.039 6.431C178.526 26.879 179.904 28.203 182.091 29.294c2.373 0.791 5.211 0.701 7.49 -0.333 2.096 -1.213 3.414 -3.039 4.161 -5.326 0.348 -3 0.113 -5.496 -1.664 -7.989 -0.734 -0.82 -0.734 -0.82 -1.664 -1.332l-0.533 -0.372c-3.471 -2.142 -8.392 -1.407 -11.024 1.716" fill="#ADDBEC"/><path d="M135.153 19.308c1.375 0.608 2.328 1.551 3.329 2.663 0.517 1.552 0.713 3.157 0.02 4.685 -0.869 1.298 -1.548 1.748 -3.016 2.306l0.02 0.965q0.091 4.518 0.135 9.036c0.016 1.548 0.037 3.096 0.071 4.644 0.033 1.496 0.051 2.991 0.058 4.487q0.008 0.854 0.033 1.707c0.122 4.452 0.122 4.452 -0.992 6.161 -0.737 0.751 -1.443 1.383 -2.321 1.96h-0.333V28.961l-1.332 -0.666c-1.439 -1.305 -1.954 -1.986 -2.081 -3.953 0.023 -1.286 0.254 -2.016 1.082 -3.038 1.715 -1.615 2.937 -2.251 5.326 -1.997" fill="#E1E5E7"/><path d="M118.73 176.892c1.629 1.128 2.499 2.542 3.254 4.346 0.407 2.579 0.003 4.379 -1.537 6.507 -1.303 1.443 -3.04 2.535 -5 2.748 -2.057 0.062 -3.586 -0.163 -5.26 -1.411 -1.905 -1.834 -3.085 -3.356 -3.162 -6.054 0.036 -2.258 0.62 -3.632 2.164 -5.264 2.933 -2.433 6.282 -2.646 9.542 -0.871M114.181 182.091l-0.666 1.332 1.664 0.333v-1.332zm73.635 -5.688c1.994 1.117 3.535 2.844 4.261 5.022 0.227 2.1 0.41 4.07 -0.874 5.847 -1.787 1.992 -3.855 3.113 -6.533 3.287 -1.873 -0.048 -3.379 -0.765 -4.91 -1.81 -1.515 -1.704 -1.877 -3.58 -2.122 -5.784 0.207 -1.998 0.81 -3.833 2.185 -5.326L180.759 177.097l0.655 -0.383c2.177 -1.138 4.116 -1.261 6.401 -0.311M184.421 182.423v1.332l0.999 -0.333 -0.333 -0.999z" fill="#FFF"/><path d="M57.546 13.004c1.604 0.875 2.828 1.805 3.521 3.529 0.541 2.278 0.586 4.794 -0.645 6.85 -1.304 1.52 -2.875 2.412 -4.843 2.763 -1.992 0.093 -3.488 -0.157 -5.108 -1.35 -1.35 -1.242 -2.151 -2.709 -2.536 -4.49 -0.035 -2.101 0.481 -3.919 1.664 -5.659 2.268 -2.155 4.957 -2.751 7.945 -1.643"/><path d="M225.699 55.26c1.234 -0.094 2.429 -0.138 3.662 0 1.114 1.016 1.252 2.479 1.378 3.943 -0.072 1.113 -0.576 1.649 -1.378 2.382 -0.95 0.475 -1.61 0.436 -2.663 0.333 -0.899 -0.599 -1.512 -1.027 -1.997 -1.997 -0.708 -0.155 -0.708 -0.155 -1.519 -0.208l-0.834 -0.076L221.704 59.587v0.666h-24.634v-3.995q4.805 -0.012 9.611 -0.017 2.232 -0.002 4.463 -0.008 2.156 -0.005 4.312 -0.007 0.82 -0.001 1.64 -0.003c2.665 -0.009 5.292 -0.014 7.936 0.368z" fill="#9DB6BF"/><path d="M231.691 67.909c1.441 1.228 2.497 2.476 2.766 4.394 0.105 2.031 -0.222 3.147 -1.549 4.697 -1.428 1.459 -2.564 2.263 -4.629 2.332 -1.93 -0.031 -3.13 -0.66 -4.487 -2.008 -1.344 -1.507 -1.876 -2.599 -1.849 -4.69 0.208 -1.599 1.057 -2.866 1.967 -4.162 2.466 -1.752 5.084 -1.925 7.781 -0.562" fill="#9DB1BA"/><path d="M196.738 175.766c2.119 0.168 2.119 0.168 3.047 0.892l0.594 0.731 0.668 0.813c1.146 1.497 2.255 3.018 3.347 4.555a199.734 199.734 0 0 0 0.999 1.332c0.382 -1.146 0.354 -2.018 0.333 -3.225 -0.014 -1.741 0.058 -3.381 0.333 -5.098h2.33v14.98c-2.621 -0.749 -2.621 -0.749 -3.277 -1.645l-0.442 -0.585 -0.442 -0.621 -0.943 -1.265 -0.456 -0.625c-0.587 -0.795 -1.207 -1.563 -1.826 -2.333C200.067 182.505 200.067 182.505 200.067 181.758l-0.666 0.333 0.012 0.564c0.028 2.48 -0.067 4.96 -0.345 7.425 -0.333 0.333 -0.333 0.333 -1.519 0.354L196.405 190.413c-0.041 -4.895 0.03 -9.76 0.333 -14.647" fill="#FFF"/><path d="M188.655 82.662c1.605 1.185 1.969 2.81 2.278 4.701 -0.306 1.939 -0.908 3.825 -2.547 5.023 -1.848 0.887 -3.479 1.195 -5.468 0.553 -1.555 -0.655 -2.612 -1.274 -3.386 -2.809 -0.737 -2.106 -0.417 -3.968 0.375 -6.013 0.777 -1.425 1.867 -1.862 3.368 -2.35 2.104 -0.541 3.489 -0.111 5.381 0.895"/><path d="M186.751 15.646c1.692 0.757 2.969 1.77 3.995 3.329 0.48 1.441 0.624 2.854 0.105 4.295C189.935 25.007 188.643 26.333 186.751 26.964c-2.153 0.179 -3.228 -0.075 -4.993 -1.332 -0.77 -0.832 -0.77 -0.832 -1.332 -1.664l-0.416 -0.603c-0.488 -1.422 -0.519 -2.71 0.03 -4.098C181.427 16.797 183.811 14.933 186.751 15.646" fill="#B7EAF7"/><path d="M116.178 72.57h0.333q0.023 6.949 0.035 13.898 0.005 3.226 0.016 6.453 0.011 3.111 0.013 6.223 0.001 1.189 0.007 2.379c0.005 1.107 0.006 2.214 0.005 3.322l0.007 1.002 -0.003 0.911 0.002 0.794C116.511 108.189 116.511 108.189 115.846 108.855l-1.664 -0.666 -0.145 -1.248c-0.091 -0.735 -0.19 -1.425 -0.375 -2.143 -0.185 -0.766 -0.167 -1.484 -0.146 -2.268h-0.333c-0.067 -1.207 0.047 -1.952 0.666 -2.996h-0.666q0.059 -2.629 0.124 -5.258 0.022 -0.893 0.042 -1.786 0.03 -1.289 0.062 -2.578l0.017 -0.797c0.043 -1.652 0.192 -3.257 0.421 -4.893l-0.666 0.666a192.077 192.077 0 0 1 -0.208 -2.226l-0.117 -1.252c-0.008 -1.196 0.135 -1.791 0.658 -2.847l0.429 -0.929q0.446 -0.947 0.894 -1.893c0.403 -0.843 0.403 -0.843 0.341 -1.839 0.479 -0.728 0.479 -0.728 0.999 -1.332" fill="#CBDDEB"/><path d="M48.269 175.766v2.663c-2.443 0.391 -4.854 0.364 -7.324 0.333l-0.333 2.996 1.372 -0.012 1.77 -0.009 0.905 -0.008 0.862 -0.003 0.798 -0.005C46.937 181.758 46.937 181.758 47.27 182.091v1.997l-6.658 0.333v2.996h7.656v2.996q-2.124 0.012 -4.248 0.018 -0.723 0.003 -1.446 0.007 -1.038 0.006 -2.075 0.008l-1.263 0.005C38.282 190.413 38.282 190.413 37.949 190.08c-0.053 -1.032 -0.087 -2.058 -0.105 -3.091l-0.021 -0.939q-0.032 -1.491 -0.061 -2.982l-0.044 -2.016q-0.054 -2.477 -0.102 -4.954l5.454 -0.191 1.991 -0.069 1.209 -0.042q0.999 -0.031 1.998 -0.031" fill="#FFF"/><path d="M61.585 139.814c0.6 0.037 0.6 0.037 1.332 0.333 0.538 0.892 0.538 0.892 1.053 2.074l0.281 0.634c0.295 0.67 0.583 1.342 0.872 2.015q0.295 0.67 0.59 1.34C67.909 151.221 67.909 151.221 67.909 153.795l-11.651 -0.333c0.372 -3.349 0.372 -3.349 1.186 -4.806 0.941 -1.766 1.776 -3.558 2.58 -5.389l0.352 -0.802q0.313 -0.711 0.625 -1.424A30.626 30.626 0 0 1 61.585 139.814m0.333 8.322 -0.666 1.997h1.664l-0.666 -1.997z" fill="#010000"/><path d="M68.908 175.766h2.996q0.013 0.749 0.021 1.498l0.012 0.843c-0.04 1.223 -0.214 2.438 -0.366 3.651h6.658l-0.333 -1.664a49.601 49.601 0 0 1 -0.021 -2.101l0.009 -1.078L77.896 176.099h2.663v14.314h-2.33l-0.333 -5.992h-6.325v5.992h-2.663zm34.621 1.664 -1.997 2.33 -0.832 -0.499c-1.706 -0.731 -3.37 -0.763 -5.16 -0.166l0.333 1.664 0.527 0.172A309.587 309.587 0 0 1 98.868 181.758l0.979 0.328 0.977 0.338 0.913 0.312c0.816 0.364 1.25 0.648 1.792 1.352 0.377 1.51 0.538 2.51 -0.187 3.911 -0.893 1.33 -1.919 2.146 -3.475 2.614 -2.225 0.405 -3.965 -0.33 -5.992 -1.199q-0.832 -0.335 -1.664 -0.666c0.166 -1.228 0.366 -1.866 1.332 -2.663l0.687 0.291c2.282 0.874 3.914 1.109 6.304 0.707l0.333 -1.997 -1.095 -0.244 -1.443 -0.338 -0.719 -0.159c-1.872 -0.446 -3.286 -1.168 -4.69 -2.525 -0.565 -1.099 -0.543 -1.839 -0.375 -3.058 2.78 -4.38 7.001 -3.219 10.985 -1.332" fill="#FFF"/><path d="M74.234 99.867c9.671 -1.195 9.671 -1.195 13.271 1.369 2.448 2.135 4.887 4.587 5.187 7.961 -0.061 1.007 -0.288 1.997 -0.483 2.987h-6.658v-8.655h-6.991l-0.333 -0.999h-0.666v-0.666l-1.144 -0.27L75.233 101.198l-0.333 -0.999z" fill="#84B2D3"/><path d="M107.253 12.047c1.187 0.765 2.28 1.552 2.871 2.871 0.313 3.648 0.313 3.648 -0.936 5.389 -1.252 1.109 -2.603 2.098 -4.307 2.268 -1.86 -0.153 -3.357 -1.371 -4.681 -2.601 -0.766 -1.415 -0.808 -2.734 -0.666 -4.328 0.63 -1.751 1.531 -2.593 2.996 -3.662 1.664 -0.555 3.101 -0.542 4.723 0.063" fill="#FEFFFF"/><path d="M76.627 22.47c1.487 0.817 2.122 1.892 2.601 3.495 0.223 1.815 -0.113 3.066 -0.999 4.66 -0.973 1.204 -1.478 1.569 -2.996 1.848 -2.004 0.119 -3.357 0.034 -4.91 -1.307 -1.235 -1.261 -1.477 -2.021 -1.519 -3.787 0.023 -1.757 0.147 -2.79 1.435 -4.078 2.07 -1.428 4.012 -1.816 6.387 -0.832"/><path d="m222.266 176.431 1.103 0.666c0 1.19 -0.362 1.682 -0.999 2.663l-0.624 -0.499c-1.437 -0.689 -2.797 -0.704 -4.369 -0.499l-0.999 0.666c-0.019 0.652 -0.019 0.652 0.333 1.332a19.474 19.474 0 0 0 2.372 0.791c3.899 1.184 3.899 1.184 4.952 2.871 0.339 1.315 0.138 2.368 -0.437 3.6 -1.218 1.578 -2.177 2.212 -4.225 2.48 -2.12 0.11 -4.118 -0.419 -5.991 -1.419l-0.333 -0.999c0.645 -0.894 0.645 -0.894 1.332 -1.664l0.634 0.23c1.958 0.658 3.334 0.905 5.358 0.436 0.712 -0.712 0.808 -1.043 0.999 -1.997l-1.095 -0.244 -1.443 -0.338 -0.719 -0.159c-2.003 -0.478 -3.551 -1.148 -4.732 -2.92 -0.155 -1.368 -0.089 -2.149 0.52 -3.391 2.236 -2.58 5.283 -3.131 8.364 -1.602M139.148 175.766h2.663l0.025 0.763q0.059 1.72 0.12 3.44l0.04 1.2 0.042 1.164 0.037 1.067c0.069 1.032 0.175 2.01 0.401 3.019 1.29 0.886 3.141 0.93 4.66 0.666 0.572 -0.353 0.572 -0.353 0.999 -0.999 0.2 -1.062 0.2 -1.062 0.243 -2.282l0.041 -0.667c0.042 -0.702 0.077 -1.404 0.112 -2.106q0.04 -0.715 0.083 -1.43 0.101 -1.75 0.188 -3.501l2.663 -0.333q0.025 1.998 0.037 3.997 0.005 0.678 0.013 1.357c0.008 0.653 0.012 1.307 0.015 1.961l0.011 1.189c-0.114 1.729 -0.386 3.059 -1.511 4.396 -1.891 1.584 -3.149 1.932 -5.597 1.864 -1.791 -0.216 -2.748 -1.173 -3.89 -2.467 -1.092 -1.466 -1.115 -2.542 -1.166 -4.332l-0.021 -0.69q-0.032 -1.089 -0.061 -2.178l-0.044 -1.478A1524.301 1524.301 0 0 1 139.148 175.766" fill="#FFF"/><path d="m95.206 92.21 2.663 1.997 1.153 0.724c1.297 1.444 1.095 2.796 1.04 4.671l-0.009 1.09a276.298 276.298 0 0 1 -0.062 3.439q-0.015 1.167 -0.027 2.335c-0.022 1.906 -0.057 3.812 -0.098 5.717h-4.66z" fill="#A8DDEF"/><path d="M191.054 52.85c1.55 0.84 2.79 1.716 3.354 3.408 0.241 1.391 0.296 2.526 -0.473 3.749 -2.362 2.73 -2.362 2.73 -3.965 3.077 -1.566 0.037 -2.619 -0.033 -3.864 -1.042 -1.33 -1.343 -1.94 -2.519 -2.184 -4.411 0.069 -1.628 0.775 -2.825 1.831 -4.036 1.606 -1.142 3.449 -1.478 5.302 -0.745" fill="#A2B6BE"/><path d="m64.581 178.096 -1.664 2.33 -0.52 -0.27L61.585 179.76l-1.061 -0.603c-1.501 -0.468 -2.157 -0.285 -3.594 0.22 -0.834 0.477 -1.199 0.875 -1.67 1.715 -0.272 1.783 -0.307 3.446 0.583 5.035 1.359 1.132 2.262 1.436 4.087 1.401 1.02 -0.173 1.606 -0.728 2.321 -1.443 0.96 0.43 1.622 0.885 2.33 1.664 -0.386 1.158 -0.612 1.269 -1.623 1.873 -0.233 0.141 -0.465 0.283 -0.705 0.429 -1.525 0.825 -2.953 0.903 -4.647 0.564 -2.391 -0.734 -3.926 -2.476 -5.342 -4.468 -0.639 -2.037 -0.69 -4.174 0.166 -6.158 1.002 -1.737 2.598 -2.718 4.307 -3.682 3.095 -0.755 5.134 0.249 7.844 1.789" fill="#FFF"/><path d="M17.976 30.293c0.899 0.551 1.67 1.173 2.33 1.997v0.999h8.322l-0.666 3.329 -1.593 0.026q-1.045 0.028 -2.09 0.057l-1.047 0.014c-2.156 0.069 -3.483 0.327 -5.257 1.567 -1.025 0.481 -1.348 0.328 -2.476 0 -1.391 -0.656 -2.179 -1.629 -2.851 -2.996 -0.25 -0.978 -0.25 -0.978 0 -1.997 1.514 -2.126 2.598 -3.309 5.326 -2.996" fill="#CEF7FF"/><path d="M116.907 179.157c1.083 0.739 1.79 1.346 2.268 2.601 0.207 1.596 0.011 2.759 -0.867 4.134 -0.87 0.986 -1.876 1.493 -3.127 1.858 -1.688 0.091 -2.533 -0.406 -3.787 -1.456 -1.213 -1.101 -1.492 -1.799 -1.685 -3.454 0.016 -1.477 0.587 -2.239 1.595 -3.276 1.754 -1.504 3.653 -1.543 5.603 -0.407M114.181 182.091l-0.666 1.332 1.664 0.333v-1.332z" fill="#010000"/><path d="m155.126 175.766 10.985 0.333v2.663h-3.995l0.005 1.034q0.009 1.892 0.013 3.784 0.003 0.82 0.007 1.64 0.006 1.176 0.008 2.353l0.005 0.745c0 0.588 -0.017 1.176 -0.038 1.763l-0.333 0.333h-2.33v-11.651h-4.328z" fill="#FFF"/><path d="M187.084 179.095c1.005 0.884 1.899 1.959 2.088 3.313 0.062 1.397 0.061 2.371 -0.84 3.49 -1.452 1.353 -2.536 1.689 -4.493 1.647 -1.502 -0.258 -2.321 -1.212 -3.205 -2.417 -0.432 -1.467 -0.344 -2.674 0.187 -4.099 0.758 -1.177 1.552 -2.029 2.905 -2.481 1.192 -0.205 2.271 0.066 3.358 0.546m-2.663 3.329v1.332l0.999 -0.333 -0.333 -0.999z" fill="#010000"/><path d="m126.498 175.766 2.33 0.333v11.318l6.658 -0.333v3.329h-9.321c-0.049 -10.696 -0.049 -10.696 0.333 -14.647m-103.862 0.333h11.318v2.663l-0.333 0.333H29.96l-0.333 11.318h-2.33l-0.333 -11.318 -3.995 -0.333z" fill="#FFF"/><path d="M224.7 83.555c1.295 0.551 1.809 1.043 2.33 2.33 0.191 1.527 0.178 2.901 -0.416 4.328 -0.775 0.886 -1.474 1.264 -2.641 1.443 -1.331 0.023 -2.078 0.002 -3.247 -0.694 -1.209 -1.319 -1.505 -2.231 -1.46 -4.068 0.178 -1.114 0.73 -1.822 1.439 -2.673 1.347 -0.898 2.414 -0.846 3.995 -0.666" fill="#BFE4EC"/><path d="M147.47 24.301c1.022 0.571 1.799 1.268 2.33 2.33 0.194 1.594 0.143 2.72 -0.603 4.161 -0.793 0.906 -1.236 1.117 -2.421 1.233 -1.594 0.033 -2.695 0.012 -3.966 -1.066 -0.853 -1.408 -0.852 -2.723 -0.666 -4.328 1 -2.349 2.956 -2.744 5.326 -2.33" fill="#BEC7CC"/><path d="M55.593 15.313c1.312 0.639 2.414 1.334 2.941 2.739 0.182 1.21 0.135 2.042 -0.299 3.191 -1.057 1.193 -2.046 1.933 -3.62 2.268 -1.499 -0.306 -2.436 -0.979 -3.35 -2.205 -0.487 -1.409 -0.512 -2.549 0.042 -3.932 1.283 -1.497 2.234 -2.462 4.286 -2.06" fill="#E6FBFF"/><path d="m150.799 94.541 0.749 0.166c0.91 0.226 0.91 0.226 1.789 -0.021C154.128 94.541 154.128 94.541 155.126 95.206a29.294 29.294 0 0 0 1.664 -0.333l0.666 0.333 0.666 -0.666 0.666 0.333c0.855 0.01 1.704 -0.022 2.559 -0.053C162.117 94.874 162.117 94.874 162.783 95.539q0.836 -0.146 1.664 -0.333l0.666 0.333 0.666 -0.666 0.666 0.333c0.534 0.015 1.068 0.013 1.602 0 1.515 -0.015 2.803 0.179 4.265 0.562 0.878 0.204 0.878 0.204 1.789 -0.562 0.666 0.125 0.666 0.125 1.332 0.333h0.999l0.999 1.332h-26.964c0 -1.997 0 -1.997 0.333 -2.33" fill="#14EAEA"/><path d="M170.107 175.766h2.663c0.572 1.143 0.414 2.457 0.438 3.716l0.021 0.915q0.033 1.45 0.061 2.9l0.044 1.963q0.054 2.41 0.102 4.819c-0.999 0.333 -0.999 0.333 -2.996 0z" fill="#FFF"/><path d="M166.445 84.221c0.935 0.597 1.501 1.005 1.997 1.997 0.185 1.542 0.212 2.657 -0.624 3.995 -1.072 1.009 -1.853 1.142 -3.334 1.107 -0.945 -0.145 -1.649 -0.504 -2.343 -1.164 -0.768 -1.313 -0.625 -2.819 -0.356 -4.27 1.201 -1.681 2.664 -1.951 4.66 -1.664" fill="#96B9D6"/><path d="M103.529 23.968h2.996c0.359 1.076 0.376 1.861 0.377 2.992l0.001 1.192 -0.004 1.247 0.004 1.234 -0.001 1.196 -0.001 1.09C106.858 33.955 106.718 34.933 106.525 35.952h-2.996z" fill="#F0FCFF"/><path d="M21.555 107.648 22.969 107.856v4.328H13.316v-3.995l1.119 0.023q0.73 0.01 1.461 0.018l0.736 0.017c1.824 0.017 3.156 -0.859 4.923 -0.599" fill="#C4E0EE"/><path d="M116.178 76.897h0.333q0.023 6.103 0.035 12.205 0.005 2.833 0.016 5.667 0.011 2.732 0.013 5.465 0.001 1.044 0.007 2.089c0.005 0.972 0.006 1.945 0.005 2.917l0.007 0.879c-0.007 1.993 -0.007 1.993 -0.749 2.734 -0.693 -2.987 -0.764 -5.915 -0.754 -8.965l-0.002 -1.52q-0.002 -1.586 0.003 -3.171c0.004 -1.343 0.002 -2.685 -0.002 -4.028q-0.003 -1.568 0 -3.136 0.001 -0.741 -0.002 -1.483c-0.018 -7.439 -0.018 -7.439 1.09 -9.654" fill="#9EBFDA"/><path d="M169.108 26.964c1.02 0.645 1.02 0.645 1.664 1.664 0.346 1.581 0.223 2.643 -0.645 4.016 -1.372 0.868 -2.434 0.991 -4.016 0.645 -1.019 -0.645 -1.019 -0.645 -1.664 -1.664 -0.346 -1.581 -0.223 -2.643 0.645 -4.015C166.464 26.741 167.526 26.618 169.108 26.964" fill="#9DC0D6"/><path d="M202.397 85.22c1.045 0.675 1.551 1.149 1.823 2.383 0.088 1.383 -0.053 2.11 -0.804 3.296 -1.183 0.748 -1.916 0.91 -3.297 0.827 -0.719 -0.182 -0.719 -0.182 -1.738 -1.035 -0.747 -1.325 -0.89 -1.978 -0.645 -3.474 1.231 -1.888 2.424 -2.361 4.66 -1.997" fill="#E4EFF4"/><path d="M75.233 24.301c0.935 0.336 1.221 0.444 1.664 1.332 0.177 1.478 0.159 2.658 -0.478 4.016 -1.081 0.817 -1.786 0.887 -3.119 0.804 -1.241 -0.27 -1.717 -0.773 -2.395 -1.823 -0.231 -0.946 -0.233 -1.718 0 -2.663 1.229 -1.844 2.27 -1.893 4.328 -1.664" fill="#C9F7FF"/><path d="M88.216 19.973c1.009 0.861 1.281 1.362 1.498 2.663 -0.217 1.302 -0.489 1.802 -1.498 2.663 -1.022 0.345 -1.924 0.47 -2.996 0.333 -0.999 -0.791 -0.999 -0.791 -1.664 -1.664l-0.333 -0.333c-0.146 -1.283 -0.102 -1.845 0.624 -2.933C85.176 19.333 86.445 19.517 88.216 19.973" fill="#D3F8FF"/><path d="M186.751 84.887c0.813 0.761 1.266 1.545 1.332 2.663 -0.457 1.399 -0.842 1.9 -2.101 2.684 -1.228 0.312 -1.228 0.312 -2.33 -0.042 -1.309 -0.944 -1.309 -0.944 -1.561 -1.977 -0.03 -0.939 0.044 -1.767 0.333 -2.663 1.336 -1.336 2.616 -1.08 4.328 -0.666" fill="#ACC8DD"/><path d="M96.205 63.249c3.69 1.398 6.449 3.603 9.259 6.325l0.814 0.766c2.077 2.078 2.077 2.078 2.082 3.749L108.189 75.233a71.238 71.238 0 0 1 -4.669 -4.293l-0.639 -0.638a1014.314 1014.314 0 0 1 -1.322 -1.324 996.671 996.671 0 0 0 -2.036 -2.033l-1.288 -1.29 -0.618 -0.616C96.205 63.621 96.205 63.621 96.205 63.249" fill="#FFF"/><path d="M116.178 76.232c0.333 0.666 0.333 0.666 0.042 1.706l-0.185 0.544c-0.515 2.025 -0.571 4.08 -0.561 6.156v0.788q0.001 1.275 0.005 2.55l0.002 1.78q0.002 2.331 0.008 4.662 0.005 2.383 0.007 4.767 0.005 4.668 0.016 9.336h-0.666c-0.344 -2.778 -0.415 -5.549 -0.462 -8.346l-0.026 -1.448q-0.026 -1.512 -0.05 -3.023c-0.02 -1.276 -0.045 -2.551 -0.071 -3.827q-0.028 -1.494 -0.051 -2.989 -0.012 -0.704 -0.027 -1.408c-0.072 -3.372 0.191 -6.593 0.685 -9.918l0.999 -0.333z" fill="#B6CFE3"/><path d="M124.168 67.909h0.333c0.045 0.644 0.077 1.29 0.104 1.935l0.058 1.088C124.501 71.904 124.501 71.904 123.761 72.435L122.836 72.903a40.613 40.613 0 0 0 -1.581 1.561A77.563 77.563 0 0 1 119.84 75.899h-0.333v-4.993l1.332 -0.333c1.446 -0.318 1.446 -0.318 2.413 -1.332l0.25 -0.666z" fill="#BDD9E6"/><path d="M18.642 181.092c0.072 1.048 0.113 1.779 -0.377 2.723C17.643 184.421 17.643 184.421 16.695 184.574l-1.07 -0.028 -1.073 -0.013C13.648 184.421 13.648 184.421 12.983 183.755c-0.09 -0.895 -0.029 -1.761 0 -2.663 1.954 -0.382 3.691 -0.257 5.659 0m210.719 0h5.659l0.333 0.666c-0.837 2.168 -0.837 2.168 -1.332 2.663 -0.658 0.033 -1.318 0.043 -1.976 0.042l-1.091 0.003C230.027 184.421 230.027 184.421 229.361 184.088z" fill="#FFF"/><path d="M74.234 99.867h8.988l-0.999 0.999c-0.391 0.699 -0.391 0.699 -0.666 1.332h-2.663l0.666 1.332 -1.332 -0.333v-0.666h-0.666v-0.666l-1.144 -0.27L75.233 101.198l-0.333 -0.999z" fill="#8CB8D7"/><path d="m196.738 95.206 0.749 0.166c0.896 0.222 0.896 0.222 1.706 0 1.361 -0.259 2.637 -0.007 3.953 0.395 0.697 0.194 0.697 0.194 1.581 -0.562l0.333 1.664h-12.65c1.332 -1.332 1.332 -1.332 2.372 -1.415L195.739 95.539h0.666z" fill="#14EAEA"/><path d="M85.553 28.296h2.33v5.659h-2.33z" fill="#C0F5FF"/><path d="M97.537 82.889c0.948 0.552 1.68 1.107 2.33 1.997 0.205 1.353 0.138 2.636 0 3.995 -1.306 -0.608 -2.243 -1.392 -3.329 -2.33q0.154 -0.822 0.312 -1.643l0.175 -0.925C97.204 83.222 97.204 83.222 97.537 82.889" fill="#B6E3F2"/><path d="M66.245 115.18h11.984c-2.564 1.923 -6.029 1.405 -9.092 1.061l-0.754 -0.083c-0.606 -0.078 -1.206 -0.192 -1.805 -0.312z" fill="#70B1D5"/><path d="m124.168 70.573 0.333 1.332 -0.733 0.402c-0.983 0.63 -1.705 1.317 -2.512 2.157A77.563 77.563 0 0 1 119.84 75.899h-0.333v-2.996l0.597 -0.256c1.412 -0.615 2.765 -1.236 4.064 -2.074" fill="#A9CADC"/><path d="M179.095 86.884c0.146 1.02 0.203 1.72 -0.421 2.575 -0.506 0.516 -0.992 0.993 -1.576 1.42h-0.666l-0.666 -1.997q0.738 -0.501 1.477 -0.999l0.831 -0.562C178.762 86.884 178.762 86.884 179.095 86.884" fill="#B1CBE1"/><path d="M75.899 99.867h7.324c-1.052 1.052 -1.253 1.218 -2.663 1.332 -1.182 -0.186 -1.182 -0.186 -2.434 -0.478l-1.265 -0.29L75.899 100.2z" fill="#AFCDE3"/><path d="M21.305 107.856h1.664v4.328h-0.999l-0.061 -0.609 -0.085 -0.806c-0.027 -0.263 -0.054 -0.525 -0.082 -0.796 -0.097 -0.727 -0.245 -1.41 -0.438 -2.117" fill="#96C0DB"/><path d="m98.535 83.888 1.332 0.999c0.13 0.971 0.13 0.971 0.083 2.06l-0.037 1.096L99.867 88.881l-1.332 -0.666z" fill="#CBEEF8"/><path d="M76.897 100.2q0.875 0.142 1.748 0.291l0.983 0.164c0.856 0.194 1.504 0.446 2.263 0.876l-0.333 0.666a98.868 98.868 0 0 1 -1.956 -0.25l-1.1 -0.14C77.563 101.531 77.563 101.531 77.103 100.84z" fill="#9EC2DC"/><path d="M166.861 27.068 167.443 27.297c-0.738 1.476 -1.59 2.152 -2.996 2.996 0.161 -2.141 0.161 -2.141 0.936 -2.996 0.728 -0.333 0.728 -0.333 1.477 -0.229" fill="#C2D8E8"/><path d="m124.168 67.909 0.333 1.332c-1.338 1.171 -2.734 1.914 -4.328 2.663l-0.666 0.333v-1.332l0.541 -0.125L120.839 70.573l1.04 -0.27c0.987 -0.299 0.987 -0.299 1.373 -1.061l0.25 -0.666z" fill="#CFE5EE"/><path d="M113.515 79.561h0.333a202.73 202.73 0 0 1 0.042 2.102l0.023 1.182C113.848 83.888 113.848 83.888 113.182 84.887q-0.11 -1.143 -0.208 -2.289l-0.117 -1.287L112.85 80.226z" fill="#D7E4EF"/><path d="m194.824 95.456 0.915 0.083 0.333 0.999c-0.333 0.333 -0.333 0.333 -1.094 0.366l-0.925 -0.012 -0.927 -0.009L192.41 96.871c0.802 -0.988 1.114 -1.315 2.413 -1.415" fill="#07F7F7"/><path d="m121.838 72.57 0.666 0.666q-0.654 0.667 -1.311 1.332l-0.737 0.749C119.84 75.899 119.84 75.899 119.507 75.899c-0.145 -0.728 -0.145 -0.728 0 -1.664 0.712 -0.66 1.499 -1.166 2.33 -1.664" fill="#92B9D3"/><path d="M170.772 87.883h2.33v1.332h-2.663z" fill="#D6E4EF"/><path d="m178.762 86.884 0.333 0.999 -2.663 1.664 -0.666 -0.666z" fill="#C2D7E7"/><path d="M79.561 99.867h3.662l-0.999 0.999c-1.214 -0.074 -1.792 -0.128 -2.663 -0.999" fill="#BDD4E6"/><path d="m175.766 95.206 1.664 1.664h-1.997l-0.666 -1.332z" fill="#28D6D6"/><path d="m105.859 85.885 1.997 0.333 0.333 1.332 -2.663 -0.999z" fill="#C7E9FD"/><path d="m166.112 26.964 1.332 0.333c-0.458 0.832 -0.458 0.832 -0.999 1.664h-0.666z" fill="#B3CEE2"/><path d="M97.204 83.555h0.333c0.083 2.205 0.083 2.205 -0.666 3.329 -0.488 -1.27 -0.144 -2.094 0.333 -3.329" fill="#A4D8EC"/><path d="m204.394 95.206 0.666 0.333v1.332l-1.664 -0.333z" fill="#0FF"/></svg>